<?xml version="1.0" standalone="no"?>
<!DOCTYPE svg PUBLIC "-//W3C//DTD SVG 1.1//EN" "http://www.w3.org/Graphics/SVG/1.1/DTD/svg11.dtd" >
<svg xmlns="http://www.w3.org/2000/svg" xmlns:xlink="http://www.w3.org/1999/xlink" version="1.1">
<metadata>
Created by FontForge 20170910 at Thu Feb 10 20:00:38 2005
 By Jimmy Wärting
\(c\) Svetlana Kovaleva, 1992; \(c\) Alexander Pompeev, 1994-98.
</metadata>
<defs>
<font id="EastAP" horiz-adv-x="652" >
  <font-face 
    font-family="EastAP"
    font-weight="400"
    font-stretch="normal"
    units-per-em="1000"
    panose-1="4 0 5 0 0 0 0 0 0 0"
    ascent="809"
    descent="-191"
    x-height="637"
    cap-height="653"
    bbox="-139 -191 1047 887"
    underline-thickness="50"
    underline-position="-100"
    stemh="31"
    stemv="117"
    unicode-range="U+0020-2122"
  />
<missing-glyph horiz-adv-x="280" 
 />
    <glyph glyph-name=".notdef" horiz-adv-x="280" 
 />
    <glyph glyph-name="space" unicode=" " horiz-adv-x="453" 
 />
    <glyph glyph-name="space" unicode="&#xa0;" horiz-adv-x="453" 
 />
    <glyph glyph-name="exclam" unicode="!" horiz-adv-x="297" 
d="M231 564c0 -13 -20 -18 -20 -53v-287c0 -31 -59 -97 -91 -97c-24 0 -26 31 -26 48v345c0 55 -26 90 -26 112c0 10 4 20 15 20c23 0 148 -66 148 -88zM213 48c0 -17 4 -52 -20 -52c-14 0 -28 4 -42 4s-28 -4 -42 -4c-5 0 -11 1 -15 4c-4 8 -4 20 -4 29c0 13 1 26 4 39
c3 10 60 20 74 29c9 6 25 31 35 31c11 0 10 -71 10 -80z" />
    <glyph glyph-name="quotedbl" unicode="&#x22;" horiz-adv-x="511" 
d="M459 509c0 -72 -70 -101 -129 -121c-4 -1 -3 -1 -6 -1c-1 0 -1 0 -1 1c0 9 70 63 70 91c0 22 -48 12 -62 12c-37 0 -27 84 -27 112c0 21 8 29 30 29c25 0 124 10 123 -33c-1 -9 -2 -18 -2 -27c0 -21 4 -42 4 -63zM236 509c0 -72 -70 -101 -129 -121c-4 -1 -3 -1 -6 -1
c-1 0 -1 0 -1 1c0 9 70 63 70 91c0 22 -48 12 -62 12c-37 0 -27 84 -27 112c0 21 8 29 30 29c25 0 124 10 123 -33c-1 -9 -2 -18 -2 -27c0 -21 4 -42 4 -63z" />
    <glyph glyph-name="numbersign" unicode="#" horiz-adv-x="977" 
d="M951 371c0 -37 -88 -109 -121 -109c-19 0 -2 37 -28 55c-19 13 -45 23 -66 31c-12 -25 -29 -47 -42 -71c57 -18 111 -46 161 -77l12 -7v0c-3 0 -155 59 -184 66c-39 -57 -193 -277 -257 -277c-37 0 -109 90 -109 123c0 18 43 8 54 8c67 0 201 115 247 163
c-45 8 -91 13 -137 13c-54 0 -108 -7 -161 -17c-37 -38 -62 -122 -75 -173c-6 -22 -11 -45 -16 -68l-4 -17c-1 -2 -2 -6 -3 -6v3c0 96 11 164 51 251c-35 -13 -60 -23 -91 -44c-25 -17 -8 -55 -27 -55c-34 0 -122 72 -122 109c0 73 220 73 274 72c13 24 25 49 43 71
c-9 1 -18 2 -26 2c-54 0 -109 -11 -162 -21c-18 -3 -40 -11 -58 -11v1v0c74 53 195 81 285 85c35 44 142 192 196 192c38 0 109 -90 109 -124c0 -8 -7 -9 -14 -9c-14 0 -27 3 -41 3c-30 0 -96 -44 -126 -59c72 0 141 -8 212 -20c27 50 42 105 54 159c4 16 6 33 12 48
c0 0 1 3 2 3s1 -2 1 -3c4 -21 6 -42 6 -64c0 -51 -10 -102 -25 -151c42 -6 176 -20 176 -75zM683 371c-55 22 -188 44 -248 44c-27 -19 -48 -47 -70 -71c93 0 181 -21 270 -46c17 23 39 45 48 73z" />
    <glyph glyph-name="dollar" unicode="$" horiz-adv-x="568" 
d="M543 193c0 -96 -160 -150 -237 -150c-9 -19 -44 -74 -68 -74c-3 0 -5 2 -5 5c0 15 32 46 39 67l-37 -1c-56 -1 -119 25 -150 25c-14 0 -28 -43 -37 -43c-8 0 -11 29 -11 36c0 33 10 65 10 98c0 28 -19 50 -19 73c0 4 2 7 7 7c13 0 35 -18 45 -25c79 -60 111 -73 206 -82
c6 43 11 88 11 131c-88 6 -265 33 -265 150c0 108 124 152 214 152c-7 13 -48 28 -48 40c0 13 58 12 65 12c17 0 34 3 51 3c6 0 27 0 27 -11c0 -9 -8 -16 -8 -26c0 -2 2 -7 3 -9c25 0 51 3 76 3c28 0 66 1 86 -22c1 -1 1 -2 2 -2c11 0 20 24 33 24c6 0 7 -7 7 -11
c0 -40 -24 -89 -24 -157c0 -7 -1 -19 -11 -19c-14 4 -30 104 -158 98l-14 -1c0 -44 0 -89 -1 -133c94 -14 211 -37 211 -158zM297 356c-3 47 -11 92 -28 136l-28 1c-41 1 -175 -8 -175 -69c0 -64 188 -67 231 -68zM511 187c0 65 -136 67 -179 68c-6 -43 -10 -86 -18 -129
l15 -1c32 -1 182 19 182 62z" />
    <glyph glyph-name="percent" unicode="%" horiz-adv-x="653" 
d="M270 552c0 -54 -50 -114 -106 -114c-64 0 -114 50 -114 114c0 67 56 96 116 96c54 0 104 -39 104 -96zM606 505c0 -18 -45 -7 -56 -7c-6 0 -13 -1 -19 -3c-169 -67 -290 -183 -377 -342c-19 -35 -36 -71 -50 -108c-3 -6 -23 -63 -27 -65l-2 6c39 238 195 449 365 613
c15 15 33 29 56 29c37 0 110 -89 110 -123zM533 102c0 -66 -64 -116 -127 -116c-66 0 -118 53 -118 119c0 69 58 116 125 116c62 0 120 -57 120 -119zM231 558c0 25 -22 39 -45 39c-22 0 -46 -15 -46 -39s24 -39 46 -39c23 0 45 14 45 39zM477 112c0 25 -28 47 -51 47
s-56 -18 -56 -44c0 -38 29 -53 63 -53c25 0 44 26 44 50z" />
    <glyph glyph-name="ampersand" unicode="&#x26;" horiz-adv-x="671" 
d="M657 -26c0 -8 -9 -10 -15 -10c-3 0 -6 0 -9 1c-109 22 -166 71 -253 128c-55 -55 -132 -114 -214 -114c-92 0 -148 80 -148 167c0 105 78 141 153 190c-25 48 -43 80 -43 137c0 44 25 99 25 118c0 16 -14 32 -14 47c0 7 6 12 13 12c15 0 42 -19 55 -26
c32 20 78 29 116 29c62 0 133 -41 133 -110c0 -96 -124 -180 -186 -241c28 -50 68 -98 110 -136c20 29 47 59 47 96c0 29 -21 58 -21 77c0 12 10 12 19 12c31 0 62 -9 93 -9s57 17 86 17c9 0 19 -4 19 -15c0 -22 -26 -42 -44 -50c-54 -24 -129 -117 -166 -164
c50 -51 149 -123 220 -140c8 -2 24 -5 24 -16zM389 529c0 42 -50 49 -82 49c-61 0 -89 -53 -89 -108c0 -36 11 -72 26 -104c47 28 145 101 145 163zM350 127c-47 47 -92 94 -133 146c-42 -44 -93 -92 -93 -158c0 -42 15 -71 61 -71c44 0 143 42 165 83z" />
    <glyph glyph-name="quotesingle" unicode="'" horiz-adv-x="276" 
d="M223 509c0 -72 -70 -101 -129 -121c-4 -1 -3 -1 -6 -1c-1 0 -1 0 -1 1c0 9 70 63 70 91c0 22 -48 12 -62 12c-37 0 -27 84 -27 112c0 21 8 29 30 29c25 0 124 10 123 -33c-1 -9 -2 -18 -2 -27c0 -21 4 -42 4 -63z" />
    <glyph glyph-name="parenleft" unicode="(" horiz-adv-x="418" 
d="M398 685c0 -10 -23 -15 -28 -17c-118 -38 -255 -202 -255 -327c0 -118 21 -273 98 -369c20 -23 42 -40 65 -59c7 -6 18 -14 18 -24c0 -6 -6 -9 -11 -9c-7 0 -14 3 -20 7c-143 91 -198 287 -198 447c0 108 30 286 133 346c32 18 73 15 108 15c14 0 90 4 90 -10z" />
    <glyph glyph-name="parenright" unicode=")" horiz-adv-x="413" 
d="M361 270c0 -108 -30 -286 -133 -346c-32 -18 -73 -15 -108 -15c-14 0 -90 -4 -90 10c0 10 23 15 28 17c118 38 255 202 255 327c0 118 -21 273 -98 369c-20 23 -42 40 -65 59c-7 6 -18 14 -18 24c0 6 6 9 11 9c7 0 14 -3 20 -7c143 -91 198 -287 198 -447z" />
    <glyph glyph-name="asterisk" unicode="*" horiz-adv-x="483" 
d="M426 233c0 -15 -80 -43 -96 -43c-11 0 -9 5 -9 13c0 22 -22 58 -39 72c-14 -15 -27 -31 -43 -44c14 -30 25 -58 52 -79c5 -3 17 -12 17 -19c0 -3 -3 -3 -5 -3c-30 0 -82 49 -95 75c-13 -10 -76 -47 -88 -47c-24 0 -46 73 -46 93c0 24 38 13 55 13s35 0 51 7
c-6 22 -11 45 -13 68c-34 7 -67 14 -102 14c-5 0 -27 1 -27 10c10 19 106 14 127 13c-1 22 -3 45 -3 67c0 44 7 66 56 66c12 0 62 -5 62 -22c0 -3 -3 -7 -5 -9c-29 -31 -54 -68 -57 -112c21 -7 41 -15 61 -23c20 20 54 68 61 95c1 5 6 22 13 22c6 0 6 -9 6 -13
c0 -28 -27 -98 -43 -122c50 -28 69 -29 106 -82c2 -3 4 -6 4 -10zM243 308c-9 6 -19 12 -30 16v-5c0 -10 2 -20 5 -30c9 5 17 12 25 19z" />
    <glyph glyph-name="plus" unicode="+" horiz-adv-x="601" 
d="M523 331c0 -9 -4 -16 -11 -21c-28 -18 -38 -55 -47 -85c-1 -3 -2 -8 -7 -8c-6 0 -15 9 -20 12c-39 26 -92 40 -137 52c-4 -15 -5 -32 -5 -48c0 -57 31 -128 31 -135c0 -5 -4 -9 -10 -9c-68 78 -66 107 -85 201c-8 1 -17 2 -25 2c-34 0 -68 -9 -102 -9c-6 0 -22 1 -22 10
c9 18 123 37 147 42c0 25 -5 171 27 171h114c5 0 28 1 28 -7c-25 -49 -72 -91 -82 -150c30 2 59 3 89 3c33 0 73 3 106 -3c8 -1 11 -11 11 -18z" />
    <glyph glyph-name="comma" unicode="," horiz-adv-x="321" 
d="M223 29c0 -72 -70 -101 -129 -121c-4 -1 -3 -1 -6 -1c-1 0 -1 0 -1 1c0 9 70 63 70 91c0 22 -48 12 -62 12c-37 0 -27 84 -27 112c0 21 8 29 30 29c25 0 124 10 123 -33c-1 -9 -2 -18 -2 -27c0 -21 4 -42 4 -63z" />
    <glyph glyph-name="hyphen" unicode="-" horiz-adv-x="578" 
d="M461 349c0 -7 -11 -20 -16 -24c-54 -49 -196 -92 -268 -92c-18 0 -91 5 -91 30c0 17 41 47 47 83c2 9 4 29 17 29c14 0 24 -17 35 -24c25 -28 74 -34 109 -34c74 0 137 37 159 37c3 0 8 -1 8 -5z" />
    <glyph glyph-name="hyphen" unicode="&#xad;" horiz-adv-x="578" 
d="M461 349c0 -7 -11 -20 -16 -24c-54 -49 -196 -92 -268 -92c-18 0 -91 5 -91 30c0 17 41 47 47 83c2 9 4 29 17 29c14 0 24 -17 35 -24c25 -28 74 -34 109 -34c74 0 137 37 159 37c3 0 8 -1 8 -5z" />
    <glyph glyph-name="period" unicode="." horiz-adv-x="271" 
d="M181 76v-37c0 -46 -7 -39 -44 -39c-15 0 -30 -4 -46 -4c-13 0 -26 6 -26 21s6 30 6 45c0 12 -6 24 -6 37c0 24 37 18 53 18c41 0 63 7 63 -41z" />
    <glyph glyph-name="slash" unicode="/" horiz-adv-x="608" 
d="M554 499c0 -18 -45 -7 -56 -7c-6 0 -13 -1 -19 -3c-169 -67 -290 -183 -377 -341c-19 -35 -36 -71 -50 -109c-3 -6 -23 -62 -27 -64l-2 6c87 264 162 416 365 612c15 15 33 29 56 29c37 0 110 -89 110 -123z" />
    <glyph glyph-name="zero" unicode="0" 
d="M593 303c0 -170 -109 -322 -289 -322c-173 0 -279 162 -279 322c0 41 13 121 35 155c70 28 113 98 150 160c38 13 59 20 101 20c60 0 98 -12 145 -48c35 17 88 37 114 65c2 3 6 7 10 7c5 0 5 -6 5 -10c0 -40 -55 -80 -84 -103c60 -53 92 -169 92 -246zM478 305
c0 52 -12 121 -29 170c-6 -11 -11 -70 -16 -71l-2 -1c-17 0 -71 114 -71 134c0 27 18 14 36 14c3 0 7 1 11 2c-27 27 -55 57 -97 57c-129 0 -166 -210 -166 -305s32 -287 160 -287c126 0 174 189 174 287z" />
    <glyph glyph-name="one" unicode="1" horiz-adv-x="356" 
d="M303 558c0 -11 -30 -21 -30 -51v-433c0 -12 26 -39 26 -59c0 -14 -15 -16 -26 -16c-50 0 -93 -20 -132 -20c-10 0 -34 2 -34 16c0 8 8 16 14 21c37 32 35 77 35 123v305c-36 -62 -86 -106 -157 -121c98 74 85 179 85 286c0 7 1 12 9 12c16 0 47 -21 63 -28
c-1 16 -12 32 -12 49c0 4 2 8 7 8c39 0 57 -36 90 -51c11 -5 62 -28 62 -41z" />
    <glyph glyph-name="two" unicode="2" horiz-adv-x="622" 
d="M592 9c0 -4 -3 -7 -6 -9h-585c78 312 438 198 438 425c0 109 -93 164 -193 164c-159 0 -172 -77 -177 -225c-34 58 -55 134 -55 201c0 22 2 54 16 72c2 10 10 16 20 16c29 0 74 -35 120 -35c56 0 114 16 172 16c99 0 219 -24 219 -147c0 -242 -361 -230 -385 -456h222
c16 13 92 77 107 77c13 0 87 -82 87 -99z" />
    <glyph glyph-name="three" unicode="3" horiz-adv-x="722" 
d="M664 154c0 -146 -258 -171 -362 -171c-131 0 -221 60 -289 169c-8 13 -12 29 -12 44c0 13 2 25 16 28c43 9 87 10 131 20c4 1 21 5 24 5c12 0 22 -11 22 -23c0 -20 -62 -41 -62 -85c0 -6 1 -10 3 -15c32 -77 82 -110 167 -110c84 0 231 56 231 159c0 57 -71 98 -122 98
c-25 0 -14 -24 -28 -24c-31 0 -94 71 -94 102c0 18 53 42 67 59c13 16 114 138 114 148c0 15 -20 20 -31 20h-231c-121 0 -130 -131 -133 -223c-34 58 -55 134 -55 201c0 22 2 54 16 72c2 10 10 15 19 15c29 0 75 -34 120 -34c119 0 237 1 356 1c31 0 60 19 90 19
c12 0 18 -7 18 -18c0 -5 -1 -10 -2 -14l-182 -247c-7 -9 -24 -15 -26 -28c6 -11 21 -3 30 -3c119 0 205 -30 205 -165z" />
    <glyph glyph-name="four" unicode="4" horiz-adv-x="599" 
d="M565 564c0 -13 -20 -17 -20 -53v-401c0 -21 17 -28 17 -37c0 -30 -82 -111 -106 -111c-18 0 -54 27 -54 47c0 17 26 47 26 69v75h-240c-20 0 -33 -42 -57 -42c-20 0 -132 108 -132 122c0 27 49 10 75 36l97 280c4 12 9 19 9 32c0 23 -15 44 -15 65c0 4 5 7 9 7
c35 0 141 -59 141 -97c0 -13 -14 -19 -25 -22c-15 -42 -113 -292 -113 -321c0 -24 28 -27 47 -27h204v334c0 56 -26 89 -26 112c0 10 4 20 15 20c23 0 148 -66 148 -88z" />
    <glyph glyph-name="five" unicode="5" horiz-adv-x="651" 
d="M598 198c0 -75 -82 -146 -149 -166c9 -8 32 -27 32 -40c0 -8 -9 -9 -15 -9c-26 0 -66 19 -89 30c-81 -19 -178 -13 -261 -13c-61 0 -78 -40 -99 -40c-10 0 -11 12 -11 19c0 32 8 65 8 97c0 29 -4 57 -4 86c0 6 0 34 10 34c39 0 52 -163 130 -163c163 0 312 4 312 194
c0 73 -82 136 -152 136c-55 0 -108 -35 -142 -77c-8 -10 -17 -58 -26 -59c-3 1 -6 4 -8 7c-29 37 -69 59 -108 83c-5 3 -12 7 -12 15c0 10 12 18 12 25v173c0 51 -30 87 -31 101l4 6c2 2 5 2 8 2c24 0 83 -65 174 -65h208c16 13 92 77 107 77c13 0 87 -82 87 -99
c0 -4 -3 -7 -6 -9h-381c-34 0 -53 -23 -53 -56v-170c49 59 88 103 171 103c146 0 284 -55 284 -222z" />
    <glyph glyph-name="six" unicode="6" horiz-adv-x="697" 
d="M636 111c0 -20 -91 -100 -108 -129c-4 -7 -10 -20 -20 -20c-17 0 -30 39 -39 39h-338c-40 0 -84 -38 -106 -38c-19 0 -17 103 -17 122c0 277 153 612 472 612c8 0 48 -1 48 -16c0 -18 -48 -24 -59 -26c-76 -11 -207 -103 -240 -172c107 -29 254 -167 314 -257
c19 -29 28 -58 43 -88c8 -16 50 -8 50 -27zM476 76c0 12 -14 56 -18 69c-42 123 -127 252 -247 311c-65 -82 -73 -268 -73 -368c0 -17 11 -55 34 -55h256c24 0 48 17 48 43z" />
    <glyph glyph-name="seven" unicode="7" horiz-adv-x="653" 
d="M625 511l-3 -8c-2 -1 -4 -2 -6 -2c-12 0 -23 5 -34 5c-5 0 -17 -2 -19 -7l-79 -182c8 0 77 0 77 -14c0 -15 -80 -17 -89 -17c-7 -15 -83 -177 -83 -181c0 -13 16 -20 16 -32c0 -36 -72 -112 -106 -112c-28 0 -77 49 -77 77s22 29 32 52l81 184c-66 0 -117 -60 -147 -112
c-1 -3 -3 -6 -7 -6c-13 0 -43 88 -43 102c0 67 175 59 218 59l91 214c7 7 11 18 11 29c0 16 -9 33 -27 33h-258c-13 0 -37 -72 -45 -85c-16 -26 -92 -119 -122 -119c-2 0 -4 1 -6 2c-3 3 -3 7 -3 11c0 35 29 83 29 143c0 46 -17 80 -17 90c0 11 8 16 17 16
c21 0 57 -27 91 -27h352c12 0 14 26 31 26c2 0 6 -2 8 -3c19 -17 117 -115 117 -136z" />
    <glyph glyph-name="eight" unicode="8" horiz-adv-x="651" 
d="M594 150c0 -119 -182 -169 -274 -169c-69 0 -136 16 -201 39c-48 17 -89 12 -89 74c0 21 5 118 38 118c17 0 33 -25 40 -38l77 85c-97 28 -185 77 -185 191c0 152 175 187 294 187c56 0 116 -14 164 -14c35 0 48 30 61 30c12 0 13 -24 13 -33c0 -29 -12 -152 -52 -152
c-15 0 -18 23 -30 27c-9 -4 -100 -110 -113 -125c137 -10 257 -65 257 -220zM412 516c0 28 -144 29 -171 29c-57 0 -210 -10 -210 -95c0 -75 155 -75 205 -75c19 0 39 0 59 1c12 14 117 130 117 140zM562 150c0 82 -274 90 -334 100c-31 -33 -62 -66 -93 -100
c33 -65 180 -82 245 -82c49 0 182 10 182 82z" />
    <glyph glyph-name="nine" unicode="9" horiz-adv-x="684" 
d="M631 555c0 -318 -206 -594 -540 -594c-6 0 -53 0 -53 14c0 22 102 25 115 25c72 0 196 107 240 160c-106 28 -239 151 -297 241c-18 28 -26 58 -42 86c-9 16 -50 8 -50 27c0 20 91 100 108 129c4 7 10 20 20 20c17 0 30 -39 39 -39h338c40 0 84 38 106 38
c19 0 16 -90 16 -107zM502 537c0 17 -11 55 -34 55h-256c-24 0 -48 -17 -48 -43c0 -14 13 -55 17 -69c38 -121 114 -236 230 -293c72 90 91 238 91 350z" />
    <glyph glyph-name="colon" unicode=":" horiz-adv-x="210" 
d="M146 365v-3c0 -52 -12 -40 -50 -40c-16 0 -33 -5 -49 -5s-32 7 -32 25c0 16 7 32 7 49c0 14 -6 28 -6 42c0 28 44 20 64 20c42 0 66 8 66 -43v-45zM152 40v-3c0 -52 -12 -40 -50 -40c-16 0 -33 -5 -49 -5s-32 7 -32 25c0 16 7 32 7 49c0 14 -6 28 -6 42c0 28 44 20 64 20
c42 0 66 8 66 -43v-45z" />
    <glyph glyph-name="semicolon" unicode=";" horiz-adv-x="236" 
d="M154 368v-3c0 -52 -12 -40 -50 -40c-16 0 -33 -5 -49 -5s-32 7 -32 25c0 16 7 32 7 49c0 14 -6 28 -6 42c0 28 44 20 64 20c42 0 66 8 66 -43v-45zM181 6c0 -72 -70 -101 -129 -121c-4 -1 -3 -1 -6 -1c-1 0 -1 0 -1 1c0 9 70 63 70 91c0 22 -48 12 -62 12
c-37 0 -27 84 -27 112c0 21 8 29 30 29c25 0 124 10 123 -33c-1 -9 -2 -18 -2 -27c0 -21 4 -42 4 -63z" />
    <glyph glyph-name="less" unicode="&#x3c;" horiz-adv-x="530" 
d="M416 419c0 -8 -10 -10 -16 -11c-102 -14 -140 -8 -225 -83c78 -25 173 -96 221 -162c3 -5 6 -10 6 -16c0 -4 -2 -10 -8 -10c-2 0 -4 1 -6 2c-123 73 -107 91 -260 95c-21 1 -21 15 -19 32c-10 1 -34 -36 -45 -36c-4 0 -4 4 -4 6c0 59 231 298 268 298
c27 0 25 -86 72 -102c6 -2 16 -5 16 -13z" />
    <glyph glyph-name="equal" unicode="=" horiz-adv-x="586" 
d="M510 316c0 -22 -89 -25 -106 -25c-95 0 -186 39 -265 90c-5 3 -19 12 -19 20c0 6 9 6 13 6c16 0 31 -6 45 -13c32 -16 80 -20 116 -20s90 5 116 34c11 7 21 24 35 24c13 0 15 -20 17 -29c6 -35 48 -71 48 -87zM490 248c0 -55 -209 -68 -244 -68c-27 0 -195 9 -195 44
c0 18 43 42 50 81c1 7 3 28 14 28c13 0 23 -24 32 -30c60 -40 149 -72 221 -72c43 0 84 20 118 20c2 0 4 0 4 -3z" />
    <glyph glyph-name="greater" unicode="&#x3e;" horiz-adv-x="536" 
d="M448 239c0 -2 0 -6 -4 -6c-11 0 -35 38 -45 36v-9c1 -16 -2 -23 -19 -23c-131 0 -156 -22 -260 -95c-2 -1 -4 -2 -6 -2c-6 0 -8 6 -8 10c0 6 3 11 6 16c48 66 143 137 221 162c-85 75 -123 69 -225 83c-6 1 -16 3 -16 11s10 11 16 13c47 16 45 102 72 102
c37 0 268 -239 268 -298z" />
    <glyph glyph-name="question" unicode="?" horiz-adv-x="630" 
d="M544 520c0 -148 -162 -213 -209 -339c-4 -10 -21 -61 -36 -61c-13 0 -22 38 -26 48c-19 42 -25 58 -25 105c0 38 173 178 173 272c0 50 -54 73 -96 73c-84 0 -104 -48 -104 -123c0 -49 11 -99 33 -143c-102 20 -151 139 -151 233c0 19 3 74 32 74c20 0 23 -22 51 -22
c38 0 75 12 113 12c84 0 245 -13 245 -129zM386 48c0 -17 4 -52 -20 -52c-14 0 -28 4 -42 4s-28 -4 -42 -4c-5 0 -11 1 -15 4c-4 8 -4 20 -4 29c0 13 1 26 4 39c3 10 60 20 74 29c9 6 25 31 35 31c11 0 10 -71 10 -80z" />
    <glyph glyph-name="at" unicode="@" horiz-adv-x="733" 
d="M714 407c0 -116 -78 -232 -203 -232c-53 0 -97 20 -115 72l-86 -79c-54 41 -90 98 -90 167c0 95 88 178 182 178c23 0 45 -5 65 -18l20 21l14 -19l-15 -17l27 -28l-15 -12l-24 22c-17 -32 -22 -61 -22 -97c0 -47 14 -147 79 -147c80 0 113 129 113 191
c0 142 -112 232 -248 232c-161 0 -294 -114 -294 -280c0 -174 162 -272 321 -272c70 0 141 14 203 46l-87 -128c-62 -12 -122 -21 -185 -21c-188 0 -334 139 -334 330c0 208 171 365 376 365c165 0 318 -95 318 -274zM449 478c-15 9 -29 14 -46 14c-69 0 -113 -79 -113 -141
c0 -41 24 -83 69 -83c12 0 23 3 33 9c-1 11 -1 23 -1 34c0 65 17 116 58 167z" />
    <glyph glyph-name="A" unicode="A" horiz-adv-x="683" 
d="M682 -32c0 -2 0 -6 -3 -6c-38 19 -156 210 -173 255h-252c-40 -68 -98 -222 -170 -255c-18 18 -86 99 -87 122c1 4 5 7 9 8c72 19 118 68 164 125c-14 0 -50 -6 -50 15c0 25 58 16 74 16c49 60 142 257 169 332c-4 14 -19 58 -19 71c0 1 2 1 5 1c18 0 123 -20 138 -27v-4
c0 -9 -13 -28 -13 -48c0 -29 78 -282 93 -325c17 0 79 10 79 -16c0 -24 -52 -15 -68 -15c23 -67 49 -132 83 -194c7 -14 21 -39 21 -55zM488 248c-33 66 -100 214 -112 285c-25 -96 -72 -194 -112 -285h43c13 12 54 60 70 60c15 0 56 -48 68 -60h43z" />
    <glyph glyph-name="B" unicode="B" 
d="M637 238c0 -16 -21 -13 -31 -13c-18 0 -26 -17 -34 -30c-63 -109 -249 -193 -371 -195l-58 -1c-12 -18 -71 -38 -94 -38c-12 0 -23 6 -23 20v656c0 9 7 13 15 13c22 0 58 -26 102 -26h325c12 0 14 26 31 26c2 0 6 -2 8 -3c20 -17 103 -91 104 -115l-3 -8
c-13 -8 -38 3 -52 -14c-46 -54 -149 -155 -218 -172l-86 -21c74 0 205 5 261 58c2 2 4 3 7 3c24 0 117 -112 117 -140zM471 583c0 6 -4 10 -10 10h-275c-29 0 -43 -25 -43 -51v-225c142 25 265 125 325 255c2 3 3 7 3 11zM496 279c0 2 -1 5 -2 7h-351v-255
c111 0 225 77 296 158c16 18 57 66 57 90z" />
    <glyph glyph-name="C" unicode="C" horiz-adv-x="691" 
d="M661 78c0 -78 -246 -101 -298 -101c-49 0 -100 4 -145 23c-141 58 -219 123 -219 286c0 101 81 175 159 226c2 1 8 5 8 8c0 4 -7 4 -9 4c-23 0 -44 -18 -45 -18c-23 0 -87 114 -87 137c0 6 0 9 6 9c39 0 151 -67 201 -67c72 0 148 39 246 39c45 0 103 5 136 -31
c1 -1 2 -2 3 -2c6 0 16 35 25 35c8 0 10 -7 10 -14c0 -56 -32 -112 -32 -172c0 -8 2 -16 2 -24c0 -9 -2 -24 -14 -24c-13 0 -22 40 -25 50c-25 74 -170 79 -231 79c-14 0 -28 0 -42 -1c-117 -6 -275 -125 -275 -250c0 -140 151 -214 272 -214c93 0 197 37 254 113
c26 35 18 126 40 127c7 -3 7 -11 7 -18c0 -21 -4 -42 -4 -63c0 -92 57 -53 57 -137z" />
    <glyph glyph-name="D" unicode="D" horiz-adv-x="674" 
d="M637 317c0 -269 -277 -317 -494 -317c-39 0 -88 -39 -104 -39c-11 0 -39 28 -39 39c0 9 26 60 26 112v435c0 53 -28 80 -30 97l4 6c5 3 11 3 17 3c58 0 115 -29 174 -29c95 0 192 0 284 -26c6 -2 11 -3 17 -3c31 0 51 31 76 31c6 0 16 -2 16 -9c0 -15 -23 -39 -23 -54
c0 -2 76 -135 76 -246zM520 317c0 197 -162 275 -337 275c-28 0 -40 -24 -40 -49v-465c0 -26 13 -47 41 -47c176 0 336 92 336 286z" />
    <glyph glyph-name="E" unicode="E" 
d="M637 9c0 -4 -3 -7 -6 -9l-488 -1c-39 0 -88 -39 -104 -39c-11 0 -39 28 -39 39c0 9 26 60 26 112v418c0 49 -30 89 -30 101l4 6c2 2 5 2 8 2c24 0 83 -65 174 -65h189c17 13 90 77 107 77c12 0 87 -79 87 -99c0 -4 -3 -7 -6 -9h-379c-26 0 -37 -32 -37 -54v-171h228
c17 13 90 77 107 77c12 0 87 -79 87 -99c0 -4 -3 -7 -6 -9h-416v-200c0 -25 10 -54 39 -54l261 -1c17 13 90 77 107 77c12 0 87 -79 87 -99z" />
    <glyph glyph-name="F" unicode="F" horiz-adv-x="603" 
d="M585 543c0 -3 -1 -6 -2 -9c-45 -45 -119 -86 -185 -86c-7 0 -16 0 -23 4c37 17 86 78 86 120c0 10 -10 22 -20 22c-2 0 -3 0 -4 -1h-257c-27 0 -36 -30 -36 -52v-263h150c16 13 92 77 107 77c13 0 87 -81 87 -99c0 -4 -3 -7 -6 -9h-338v-138c0 -21 17 -28 17 -37
c0 -30 -82 -111 -106 -111c-17 0 -54 27 -54 45c0 21 26 48 26 71v470c0 50 -29 86 -30 97l4 6c5 3 11 3 17 3c58 0 115 -29 174 -29h247c45 0 81 28 97 28c21 0 49 -90 49 -109z" />
    <glyph glyph-name="G" unicode="G" horiz-adv-x="699" 
d="M657 301c0 -5 -6 -12 -8 -15c-19 -23 -18 -66 -18 -95c0 -37 3 -74 3 -111c0 -11 3 -45 -13 -45c-14 0 -36 42 -43 42c-9 0 -8 -16 -8 -21c-6 -68 -167 -76 -215 -76c-51 0 -107 5 -156 20c-118 36 -199 169 -199 288c0 101 81 175 159 226c2 1 8 5 8 8c0 4 -7 4 -9 4
c-17 0 -29 -7 -42 -17c-1 -1 -1 -1 -3 -1c-24 0 -87 114 -87 138c0 5 0 8 6 8c40 0 151 -67 201 -67c72 0 148 39 246 39c45 0 103 5 136 -31c1 -1 2 -2 3 -2c6 0 16 35 25 35c8 0 10 -7 10 -14c0 -56 -32 -112 -32 -172c0 -8 2 -16 2 -24c0 -9 -2 -24 -14 -24
c-13 0 -22 40 -25 50c-25 74 -170 79 -231 79c-14 0 -28 0 -42 -1c-116 -6 -276 -125 -276 -249c0 -139 143 -224 268 -224c78 0 237 51 237 146c0 68 -182 58 -229 71c-5 1 -19 4 -19 12c0 38 193 54 228 54c23 0 137 1 137 -31z" />
    <glyph glyph-name="H" unicode="H" horiz-adv-x="653" 
d="M619 561c0 -13 -20 -17 -20 -53v-399c0 -20 17 -29 17 -37c0 -30 -82 -111 -106 -111c-18 0 -54 27 -54 46s26 48 26 70v209h-338v-177c0 -20 17 -29 17 -37c0 -30 -82 -111 -106 -111c-18 0 -54 27 -54 46s26 48 26 70v446c0 52 -26 85 -26 108c0 10 4 20 15 20
c23 0 148 -66 148 -88c0 -13 -20 -17 -20 -53v-193h87c15 14 66 71 84 71c15 0 67 -58 80 -71h87v204c0 52 -26 85 -26 108c0 10 4 20 15 20c23 0 148 -66 148 -88z" />
    <glyph glyph-name="I" unicode="I" horiz-adv-x="236" 
d="M177 566c0 -13 -20 -17 -20 -53v-403c0 -20 17 -29 17 -37c0 -30 -82 -111 -106 -111c-18 0 -54 27 -54 47c0 17 26 47 26 69v448c0 51 -26 85 -26 108c0 10 4 20 15 20c23 0 148 -66 148 -88z" />
    <glyph glyph-name="J" unicode="J" horiz-adv-x="520" 
d="M490 565c0 -13 -20 -17 -20 -53v-266c0 -152 -98 -263 -253 -263c-103 0 -128 95 -177 121c-16 9 -44 33 -44 53c0 32 125 20 145 20c17 0 33 6 48 6c9 0 14 -8 14 -15c0 -23 -59 -32 -59 -65c0 -52 40 -89 91 -89c84 0 118 82 118 154v353c0 56 -26 89 -26 112
c0 10 4 20 15 20c23 0 148 -66 148 -88z" />
    <glyph glyph-name="K" unicode="K" horiz-adv-x="629" 
d="M619 150c0 -27 -33 -74 -50 -94c-13 -16 -31 -85 -46 -85c-16 0 -22 15 -35 22c-116 63 -203 167 -289 264c-19 -2 -36 -9 -55 -10v-138c0 -21 17 -28 17 -37c0 -30 -82 -111 -106 -111c-18 0 -54 27 -54 46s26 48 26 70v442c0 55 -26 90 -26 112c0 10 4 20 15 20
c23 0 148 -66 148 -88c0 -13 -20 -17 -20 -53v-81c17 -34 41 -77 68 -104c73 56 219 204 219 299c0 11 5 30 19 30c11 0 19 -10 25 -17c27 -33 52 -63 85 -91c8 -6 20 -16 21 -27l-3 -6c-8 -8 -19 -5 -29 -5c-6 0 -11 -1 -15 -5c-100 -96 -162 -150 -286 -217
c69 -72 174 -146 277 -146c34 0 72 19 87 19c5 0 7 -4 7 -9zM176 299c-13 20 -23 43 -32 65v-78c12 0 22 6 32 13z" />
    <glyph glyph-name="L" unicode="L" horiz-adv-x="584" 
d="M571 109c0 -25 -61 -128 -86 -128c-18 0 -32 19 -58 19h-228c-67 0 -81 -6 -140 -29c-11 -4 -24 -9 -36 -9c-14 0 -22 7 -22 21c0 6 1 11 3 17c15 46 22 83 22 133v387c0 56 -26 90 -26 112c0 10 4 20 15 20c23 0 148 -66 148 -88c0 -13 -20 -18 -20 -53v-418
c0 -24 16 -62 44 -62h225c20 0 38 10 38 32c0 112 -84 180 -84 191c0 4 6 4 8 4c59 0 197 -104 197 -149z" />
    <glyph glyph-name="M" unicode="M" horiz-adv-x="992" 
d="M985 -33c0 -2 -1 -5 -4 -5c-4 0 -13 7 -15 9c-140 135 -235 338 -287 523c-55 -101 -107 -211 -185 -297c7 -19 24 -75 47 -75c13 0 21 14 36 14c6 0 8 -5 8 -10c0 -27 -85 -162 -105 -162c-66 0 -143 316 -156 374c-28 -137 -113 -249 -204 -351c-5 -6 -16 -25 -25 -25
c-5 0 -95 124 -95 140c0 9 6 14 14 14c15 0 30 -8 46 -8c114 0 222 183 252 278c-15 62 -34 194 -57 239c0 20 14 26 31 26c16 0 68 -36 118 -36c7 0 14 2 21 2c11 0 15 -12 15 -21c0 -3 -2 -8 -3 -10c-13 -13 -28 -33 -28 -52c0 -81 40 -229 73 -302
c85 109 105 250 105 385c0 9 -3 27 11 27c13 0 32 -11 41 -20c8 8 4 19 4 29c0 6 4 10 10 10c29 0 106 -46 130 -65c16 -13 13 -35 13 -53c0 -204 87 -384 182 -558c3 -6 7 -13 7 -20z" />
    <glyph glyph-name="N" unicode="N" 
d="M618 563c0 -13 -20 -18 -20 -53v-401c0 -21 17 -28 17 -37c0 -30 -82 -111 -106 -111c-18 0 -48 23 -48 42c0 14 13 39 20 51c-121 24 -303 210 -338 327v-272c0 -21 17 -28 17 -37c0 -30 -82 -111 -106 -111c-17 0 -54 27 -54 45c0 21 26 48 26 71v441
c0 56 -26 89 -26 112c0 10 4 20 15 20c23 0 148 -66 148 -88c0 -10 -9 -15 -14 -23c-9 -16 -6 -64 -6 -81c12 23 34 107 64 107c4 0 8 -3 10 -6c50 -192 72 -369 264 -478v438c0 56 -26 89 -26 112c0 10 4 20 15 20c23 0 148 -66 148 -88z" />
    <glyph glyph-name="O" unicode="O" horiz-adv-x="653" 
d="M596 317c0 -161 -109 -336 -285 -336s-284 175 -284 336c0 50 10 92 29 138c70 28 113 98 150 160c33 14 69 22 105 22c65 0 106 -36 160 -36c20 0 40 5 60 5c2 -1 4 -3 4 -6c0 -13 -26 -30 -26 -48c0 -4 3 -9 5 -12c55 -68 82 -133 82 -223zM479 317
c0 95 -43 289 -168 289c-124 0 -167 -195 -167 -289c0 -95 39 -305 167 -305c127 0 168 211 168 305z" />
    <glyph glyph-name="P" unicode="P" horiz-adv-x="653" 
d="M631 532l-3 -8c-13 -8 -38 3 -52 -14c-38 -208 -235 -323 -432 -346v-55c0 -21 17 -28 17 -37c0 -29 -82 -111 -106 -111c-18 0 -54 27 -54 46s26 48 26 70v470c0 51 -29 84 -30 97l4 6c5 3 11 3 17 3c58 0 115 -29 174 -29h296c12 0 14 26 31 26c2 0 6 -2 8 -3
c20 -18 103 -91 104 -115zM467 561c0 36 -36 31 -62 31h-230c-20 0 -31 -17 -31 -35v-361c127 11 323 241 323 365z" />
    <glyph glyph-name="Q" unicode="Q" horiz-adv-x="651" 
d="M595 319c0 -90 -34 -186 -98 -250c25 -31 52 -60 83 -86c4 -1 9 -4 9 -8c-4 -8 -11 -14 -20 -14c-30 0 -91 49 -116 68c-40 -30 -93 -46 -142 -46c-176 0 -283 176 -283 336c0 22 10 121 23 135c70 28 113 98 150 160c25 10 71 25 98 25c51 0 97 -7 139 -37
c13 -3 26 -5 39 -5c20 0 40 5 60 5c2 -1 4 -3 4 -6c0 -13 -26 -30 -26 -48c0 -4 3 -9 5 -12c47 -65 75 -135 75 -217zM479 319c0 93 -46 289 -168 289c-124 0 -166 -195 -166 -289c0 -95 37 -305 166 -305c42 0 70 30 97 57c-4 4 -8 5 -13 5c-9 0 -17 -4 -26 -4
c-7 0 -8 9 -8 14c0 21 54 135 72 135l1 -1c5 -1 9 -60 16 -71c17 49 29 118 29 170z" />
    <glyph glyph-name="R" unicode="R" horiz-adv-x="698" 
d="M699 -36c-133 18 -352 108 -426 226c-42 -17 -85 -21 -130 -26v-55c0 -22 17 -27 17 -37c0 -29 -82 -111 -106 -111c-19 0 -54 27 -54 48c0 15 26 47 26 68v470c0 52 -29 82 -30 97l4 6c5 3 11 3 17 3c58 0 115 -29 174 -29h296c12 0 14 26 31 26c2 0 6 -2 8 -3
c21 -18 102 -90 104 -115l-3 -8c-14 -8 -38 3 -52 -14c-19 -105 -109 -222 -203 -271c58 -104 225 -221 327 -275zM465 568c0 26 -38 24 -55 24h-236c-20 0 -31 -16 -31 -35v-361c41 0 68 19 100 43c-14 30 -54 22 -54 38c0 29 61 58 81 77c12 11 42 52 55 55c4 1 8 2 12 2
c6 0 9 -3 9 -9c0 -14 -5 -29 -5 -44c0 -10 1 -20 4 -29c45 48 120 171 120 239z" />
    <glyph glyph-name="S" unicode="S" horiz-adv-x="687" 
d="M636 176c0 -147 -252 -192 -360 -192c-74 0 -135 16 -206 32h-6c-16 0 -34 -53 -45 -53c-10 0 -13 35 -13 44c0 41 12 81 12 122c0 33 -19 59 -19 90c0 7 1 19 11 19c16 0 40 -29 49 -40c72 -82 198 -104 302 -104c41 0 238 14 238 77c0 143 -600 14 -600 276
c0 49 24 99 62 129c8 6 22 11 28 17c1 1 1 3 1 5c0 6 -32 27 -32 42c0 9 12 10 18 10c21 0 31 -26 65 -26c58 0 111 12 168 19c50 6 101 7 151 7h32c37 0 63 1 89 -26c1 -1 2 -3 4 -3c10 0 27 31 39 31c8 0 10 -7 10 -14c0 -55 -32 -112 -32 -172c0 -8 2 -16 2 -24
c0 -9 -2 -24 -15 -24c-10 0 -25 41 -30 50c-39 74 -235 81 -305 81c-56 0 -214 -6 -214 -92c0 -136 596 15 596 -281z" />
    <glyph glyph-name="T" unicode="T" horiz-adv-x="722" 
d="M704 583c0 -76 -77 -171 -158 -171c-3 0 -6 2 -7 5c39 27 67 84 67 131c0 14 -6 45 -25 45h-131c-25 0 -33 -13 -33 -37v-447c0 -21 17 -28 17 -37c0 -30 -82 -111 -106 -111c-17 0 -54 27 -54 45c0 21 26 48 26 71v482c0 11 1 34 -15 34h-111c-13 0 -37 -72 -45 -85
c-16 -26 -92 -119 -122 -119c-2 0 -4 1 -6 2c-3 3 -3 7 -3 11c0 35 29 83 29 143c0 46 -17 80 -17 90c0 11 8 16 17 16c21 0 57 -27 91 -27h156c-2 4 -3 9 -3 13c0 12 12 14 21 14c36 0 83 -27 107 -27h150c16 23 46 31 72 31c50 0 83 -20 83 -72z" />
    <glyph glyph-name="U" unicode="U" horiz-adv-x="653" 
d="M639 562c0 -5 -7 -16 -13 -16c-12 0 -21 8 -33 8c-5 0 -9 -4 -11 -8c19 -74 16 -154 16 -229h-1c0 -161 -109 -336 -285 -336c-44 0 -87 12 -130 12c-15 0 -29 -7 -44 -7c-10 0 -30 3 -30 17c0 21 36 24 36 40c0 9 -9 15 -14 21c-64 68 -104 187 -104 278v175
c0 56 -26 89 -26 112c0 10 4 20 15 20c23 0 148 -66 148 -88c0 -14 -21 -17 -20 -53l3 -191c1 -94 40 -305 167 -305s168 211 168 305v126c0 45 -24 146 -52 181c-3 4 -7 9 -7 15c0 14 20 17 30 17c28 0 187 -70 187 -94z" />
    <glyph glyph-name="V" unicode="V" horiz-adv-x="631" 
d="M619 510l-3 -6c-8 -8 -19 -5 -29 -5c-6 0 -11 -1 -15 -5c-102 -98 -173 -260 -200 -396c9 -19 31 -21 31 -46c0 -10 -54 -46 -65 -78c-5 -5 -12 -10 -19 -10c-8 0 -14 5 -19 10c-58 57 -150 238 -182 317c-39 97 -66 197 -103 294l-15 39c0 20 14 26 31 26
c15 0 68 -36 118 -36c7 0 14 2 21 2c11 0 15 -12 15 -21c0 -3 -2 -8 -3 -10c-13 -13 -28 -33 -28 -52c0 -5 1 -9 2 -13c37 -105 116 -323 191 -401c11 142 62 324 118 454c8 18 4 25 4 42c0 11 5 30 19 30c11 0 19 -10 25 -17c27 -33 52 -63 85 -91c8 -7 19 -15 21 -27z" />
    <glyph glyph-name="W" unicode="W" horiz-adv-x="873" 
d="M864 515l-3 -6c-8 -8 -19 -5 -29 -5c-5 0 -11 -1 -15 -5c-43 5 -134 -176 -148 -207c-18 -43 -34 -87 -46 -131c-14 -54 -24 -108 -23 -164v-10c0 -9 -2 -30 -15 -30c-12 0 -11 17 -11 24v109c-13 -25 -47 -62 -78 -62c-2 0 -9 2 -11 3v17c1 74 -29 249 -95 297
c-49 -57 -94 -124 -108 -199c6 -14 30 -41 30 -53c0 -3 -3 -7 -5 -9c-27 -36 -38 -71 -58 -110c-3 -6 -5 -10 -13 -10c-7 0 -10 5 -13 10c-77 129 -129 271 -165 416c-12 49 -17 102 -31 151c-8 28 -18 56 -29 83c0 20 14 26 31 26c16 0 68 -36 118 -36c7 0 14 2 21 2
c11 0 15 -12 15 -21c0 -3 -2 -8 -3 -10c-13 -13 -28 -33 -28 -52c0 -93 59 -277 103 -362c15 83 42 166 72 245c-8 8 -41 36 -41 45c0 6 5 7 9 7c15 0 31 -10 42 -18c9 16 44 89 59 89c30 0 55 -85 86 -114c6 -6 17 -16 18 -25c-3 -16 -30 -13 -42 -13c-6 0 -15 1 -20 -5
c58 -47 95 -113 136 -174c24 146 77 280 140 412c0 12 4 30 19 30c11 0 19 -9 25 -17c27 -33 52 -63 85 -91c8 -6 20 -16 21 -27z" />
    <glyph glyph-name="X" unicode="X" horiz-adv-x="619" 
d="M605 519l-3 -6c-7 -8 -19 -5 -29 -5c-36 0 -177 -192 -201 -222c13 -19 113 -155 128 -155c18 0 34 41 50 41c8 0 14 -4 14 -12c0 -10 -16 -44 -19 -57c-9 -34 -11 -71 -11 -106v-10c0 -17 -18 -29 -33 -29c-34 0 -186 208 -209 240c-44 -44 -233 -238 -284 -238
c-7 0 -15 4 -15 12c0 17 23 29 34 38c79 62 160 171 213 256c-27 41 -225 332 -225 358c0 23 18 34 39 34c34 0 68 -12 103 -12c21 0 37 13 54 13c6 0 8 -4 8 -9c0 -28 -44 -36 -44 -63c0 -24 115 -188 137 -221c20 33 142 231 143 258c1 12 2 30 19 30c11 0 19 -9 25 -17
c27 -33 52 -63 85 -91c8 -6 20 -16 21 -27z" />
    <glyph glyph-name="Y" unicode="Y" horiz-adv-x="635" 
d="M629 519l-3 -6c-8 -8 -19 -5 -29 -5c-11 0 -16 -4 -21 -14c-12 -24 -22 -51 -34 -75c-51 -105 -118 -206 -207 -282c-90 -77 -202 -155 -318 -182l-7 -1c-6 0 -13 2 -13 9c0 14 23 22 32 26c93 46 185 124 249 205c-103 63 -195 259 -234 366c-6 18 -41 67 -41 77
c0 7 1 14 9 14c49 0 97 -10 146 -10c23 0 14 -50 14 -65c0 -110 39 -281 131 -353c81 102 162 273 176 401c1 12 2 30 19 30c11 0 19 -10 25 -17c28 -33 52 -63 85 -91c8 -7 19 -15 21 -27z" />
    <glyph glyph-name="Z" unicode="Z" horiz-adv-x="651" 
d="M634 9c0 -4 -3 -7 -6 -9h-417c-20 0 -33 -42 -57 -42c-20 0 -132 108 -132 122c0 30 50 6 75 36l350 415c7 8 10 19 10 30c0 15 -8 32 -26 32h-258c-13 0 -37 -72 -45 -85c-16 -26 -92 -119 -122 -119c-2 0 -4 1 -6 2c-3 3 -3 7 -3 11c0 35 29 83 29 143
c0 46 -17 80 -17 90s8 16 17 16c20 0 57 -27 91 -27h352c12 0 14 26 31 26c2 0 6 -2 8 -3c18 -16 117 -115 117 -136l-3 -8c-6 -4 -18 -2 -26 -2c-11 0 -24 -1 -31 -10c-36 -43 -361 -420 -361 -442c0 -10 9 -18 19 -18h217c17 13 90 77 107 77c12 0 87 -79 87 -99z" />
    <glyph glyph-name="bracketleft" unicode="[" horiz-adv-x="403" 
d="M360 681c0 -24 -29 -38 -29 -77c0 -29 18 -56 18 -83c0 -2 0 -4 -3 -4s-8 3 -11 4c-75 43 -53 122 -90 122c-34 0 -53 -13 -53 -49v-535c0 -20 3 -82 33 -82c45 0 73 61 116 61c4 0 8 -2 8 -6c0 -11 -19 -33 -25 -43c-9 -14 -12 -74 -30 -74c-34 0 -75 31 -115 31
c-55 0 -83 -62 -109 -62c-14 0 -16 18 -16 28c0 38 21 78 21 131v446c0 59 -14 117 -14 176c0 12 0 28 17 28c12 0 46 -26 99 -26c52 0 104 10 154 23c5 1 10 3 16 3c7 0 13 -4 13 -12z" />
    <glyph glyph-name="backslash" unicode="\" 
d="M563 -19c0 -3 0 -6 -1 -6s-2 4 -3 5c-7 17 -13 35 -19 52c-22 55 -48 109 -79 159c-87 138 -202 237 -354 298c-19 7 -41 0 -60 0c-7 0 -15 1 -15 10c0 33 72 123 110 123c23 0 41 -14 56 -29c194 -186 298 -347 365 -609v-3z" />
    <glyph glyph-name="bracketright" unicode="]" horiz-adv-x="406" 
d="M323 -79c0 -13 -5 -25 -20 -25c-27 0 -74 43 -121 43c-34 0 -67 -24 -99 -24c-16 0 -20 60 -29 74c-6 10 -25 32 -25 43c0 4 4 6 8 6c43 0 71 -61 116 -61c30 0 33 62 33 82v535c0 36 -19 49 -53 49c-36 0 -15 -77 -90 -122c-3 -2 -7 -4 -11 -4c-3 0 -3 3 -3 5
c0 26 18 53 18 81c0 40 -29 53 -29 78c0 8 6 12 13 12c5 0 11 -2 16 -3c51 -12 101 -23 154 -23s87 26 99 26c17 0 17 -16 17 -28c0 -59 -14 -117 -14 -176v-446c0 -50 20 -92 20 -122z" />
    <glyph glyph-name="asciicircum" unicode="^" horiz-adv-x="500" 
d="M526 284h-44l-192 296l-198 -296h-118l280 416h7z" />
    <glyph glyph-name="underscore" unicode="_" 
d="M528 9c0 -4 -3 -7 -6 -9h-413c-8 0 -18 4 -18 13c0 13 16 18 26 18h217c17 13 87 77 107 77c14 0 87 -76 87 -99z" />
    <glyph glyph-name="grave" unicode="`" horiz-adv-x="500" 
d="M361 722l-5 -21c-83 9 -160 49 -217 110l50 76c27 -73 105 -131 172 -165z" />
    <glyph glyph-name="a" unicode="a" horiz-adv-x="683" 
d="M682 -32c0 -2 0 -6 -3 -6c-38 19 -156 210 -173 255h-252c-40 -68 -98 -222 -170 -255c-18 18 -86 99 -87 122c1 4 5 7 9 8c72 19 118 68 164 125c-14 0 -50 -6 -50 15c0 25 58 16 74 16c49 60 142 257 169 332c-4 14 -19 58 -19 71c0 1 2 1 5 1c18 0 123 -20 138 -27v-4
c0 -9 -13 -28 -13 -48c0 -29 78 -282 93 -325c17 0 79 10 79 -16c0 -24 -52 -15 -68 -15c23 -67 49 -132 83 -194c7 -14 21 -39 21 -55zM488 248c-33 66 -100 214 -112 285c-25 -96 -72 -194 -112 -285h43c13 12 54 60 70 60c15 0 56 -48 68 -60h43z" />
    <glyph glyph-name="b" unicode="b" 
d="M637 238c0 -16 -21 -13 -31 -13c-18 0 -26 -17 -34 -30c-63 -109 -249 -193 -371 -195l-58 -1c-12 -18 -71 -38 -94 -38c-12 0 -23 6 -23 20v656c0 9 7 13 15 13c22 0 58 -26 102 -26h325c12 0 14 26 31 26c2 0 6 -2 8 -3c20 -17 103 -91 104 -115l-3 -8
c-13 -8 -38 3 -52 -14c-46 -54 -149 -155 -218 -172l-86 -21c74 0 205 5 261 58c2 2 4 3 7 3c24 0 117 -112 117 -140zM471 583c0 6 -4 10 -10 10h-275c-29 0 -43 -25 -43 -51v-225c142 25 265 125 325 255c2 3 3 7 3 11zM496 279c0 2 -1 5 -2 7h-351v-255
c111 0 225 77 296 158c16 18 57 66 57 90z" />
    <glyph glyph-name="c" unicode="c" horiz-adv-x="691" 
d="M661 78c0 -78 -246 -101 -298 -101c-49 0 -100 4 -145 23c-141 58 -219 123 -219 286c0 101 81 175 159 226c2 1 8 5 8 8c0 4 -7 4 -9 4c-23 0 -44 -18 -45 -18c-23 0 -87 114 -87 137c0 6 0 9 6 9c39 0 151 -67 201 -67c72 0 148 39 246 39c45 0 103 5 136 -31
c1 -1 2 -2 3 -2c6 0 16 35 25 35c8 0 10 -7 10 -14c0 -56 -32 -112 -32 -172c0 -8 2 -16 2 -24c0 -9 -2 -24 -14 -24c-13 0 -22 40 -25 50c-25 74 -170 79 -231 79c-14 0 -28 0 -42 -1c-117 -6 -275 -125 -275 -250c0 -140 151 -214 272 -214c93 0 197 37 254 113
c26 35 18 126 40 127c7 -3 7 -11 7 -18c0 -21 -4 -42 -4 -63c0 -92 57 -53 57 -137z" />
    <glyph glyph-name="d" unicode="d" horiz-adv-x="674" 
d="M637 317c0 -269 -277 -317 -494 -317c-39 0 -88 -39 -104 -39c-11 0 -39 28 -39 39c0 9 26 60 26 112v435c0 53 -28 80 -30 97l4 6c5 3 11 3 17 3c58 0 115 -29 174 -29c95 0 192 0 284 -26c6 -2 11 -3 17 -3c31 0 51 31 76 31c6 0 16 -2 16 -9c0 -15 -23 -39 -23 -54
c0 -2 76 -135 76 -246zM520 317c0 197 -162 275 -337 275c-28 0 -40 -24 -40 -49v-465c0 -26 13 -47 41 -47c176 0 336 92 336 286z" />
    <glyph glyph-name="e" unicode="e" 
d="M637 9c0 -4 -3 -7 -6 -9l-488 -1c-39 0 -88 -39 -104 -39c-11 0 -39 28 -39 39c0 9 26 60 26 112v418c0 49 -30 89 -30 101l4 6c2 2 5 2 8 2c24 0 83 -65 174 -65h189c17 13 90 77 107 77c12 0 87 -79 87 -99c0 -4 -3 -7 -6 -9h-379c-26 0 -37 -32 -37 -54v-171h228
c17 13 90 77 107 77c12 0 87 -79 87 -99c0 -4 -3 -7 -6 -9h-416v-200c0 -25 10 -54 39 -54l261 -1c17 13 90 77 107 77c12 0 87 -79 87 -99z" />
    <glyph glyph-name="f" unicode="f" horiz-adv-x="603" 
d="M585 543c0 -3 -1 -6 -2 -9c-45 -45 -119 -86 -185 -86c-7 0 -16 0 -23 4c37 17 86 78 86 120c0 10 -10 22 -20 22c-2 0 -3 0 -4 -1h-257c-27 0 -36 -30 -36 -52v-263h150c16 13 92 77 107 77c13 0 87 -81 87 -99c0 -4 -3 -7 -6 -9h-338v-138c0 -21 17 -28 17 -37
c0 -30 -82 -111 -106 -111c-17 0 -54 27 -54 45c0 21 26 48 26 71v470c0 50 -29 86 -30 97l4 6c5 3 11 3 17 3c58 0 115 -29 174 -29h247c45 0 81 28 97 28c21 0 49 -90 49 -109z" />
    <glyph glyph-name="g" unicode="g" horiz-adv-x="699" 
d="M657 301c0 -5 -6 -12 -8 -15c-19 -23 -18 -66 -18 -95c0 -37 3 -74 3 -111c0 -11 3 -45 -13 -45c-14 0 -36 42 -43 42c-9 0 -8 -16 -8 -21c-6 -68 -167 -76 -215 -76c-51 0 -107 5 -156 20c-118 36 -199 169 -199 288c0 101 81 175 159 226c2 1 8 5 8 8c0 4 -7 4 -9 4
c-17 0 -29 -7 -42 -17c-1 -1 -1 -1 -3 -1c-24 0 -87 114 -87 138c0 5 0 8 6 8c40 0 151 -67 201 -67c72 0 148 39 246 39c45 0 103 5 136 -31c1 -1 2 -2 3 -2c6 0 16 35 25 35c8 0 10 -7 10 -14c0 -56 -32 -112 -32 -172c0 -8 2 -16 2 -24c0 -9 -2 -24 -14 -24
c-13 0 -22 40 -25 50c-25 74 -170 79 -231 79c-14 0 -28 0 -42 -1c-116 -6 -276 -125 -276 -249c0 -139 143 -224 268 -224c78 0 237 51 237 146c0 68 -182 58 -229 71c-5 1 -19 4 -19 12c0 38 193 54 228 54c23 0 137 1 137 -31z" />
    <glyph glyph-name="h" unicode="h" horiz-adv-x="653" 
d="M619 561c0 -13 -20 -17 -20 -53v-399c0 -20 17 -29 17 -37c0 -30 -82 -111 -106 -111c-18 0 -54 27 -54 46s26 48 26 70v209h-338v-177c0 -20 17 -29 17 -37c0 -30 -82 -111 -106 -111c-18 0 -54 27 -54 46s26 48 26 70v446c0 52 -26 85 -26 108c0 10 4 20 15 20
c23 0 148 -66 148 -88c0 -13 -20 -17 -20 -53v-193h87c15 14 66 71 84 71c15 0 67 -58 80 -71h87v204c0 52 -26 85 -26 108c0 10 4 20 15 20c23 0 148 -66 148 -88z" />
    <glyph glyph-name="i" unicode="i" horiz-adv-x="236" 
d="M177 566c0 -13 -20 -17 -20 -53v-403c0 -20 17 -29 17 -37c0 -30 -82 -111 -106 -111c-18 0 -54 27 -54 47c0 17 26 47 26 69v448c0 51 -26 85 -26 108c0 10 4 20 15 20c23 0 148 -66 148 -88z" />
    <glyph glyph-name="j" unicode="j" horiz-adv-x="520" 
d="M490 565c0 -13 -20 -17 -20 -53v-266c0 -152 -98 -263 -253 -263c-103 0 -128 95 -177 121c-16 9 -44 33 -44 53c0 32 125 20 145 20c17 0 33 6 48 6c9 0 14 -8 14 -15c0 -23 -59 -32 -59 -65c0 -52 40 -89 91 -89c84 0 118 82 118 154v353c0 56 -26 89 -26 112
c0 10 4 20 15 20c23 0 148 -66 148 -88z" />
    <glyph glyph-name="k" unicode="k" horiz-adv-x="629" 
d="M619 150c0 -27 -33 -74 -50 -94c-13 -16 -31 -85 -46 -85c-16 0 -22 15 -35 22c-116 63 -203 167 -289 264c-19 -2 -36 -9 -55 -10v-138c0 -21 17 -28 17 -37c0 -30 -82 -111 -106 -111c-18 0 -54 27 -54 46s26 48 26 70v442c0 55 -26 90 -26 112c0 10 4 20 15 20
c23 0 148 -66 148 -88c0 -13 -20 -17 -20 -53v-81c17 -34 41 -77 68 -104c73 56 219 204 219 299c0 11 5 30 19 30c11 0 19 -10 25 -17c27 -33 52 -63 85 -91c8 -6 20 -16 21 -27l-3 -6c-8 -8 -19 -5 -29 -5c-6 0 -11 -1 -15 -5c-100 -96 -162 -150 -286 -217
c69 -72 174 -146 277 -146c34 0 72 19 87 19c5 0 7 -4 7 -9zM176 299c-13 20 -23 43 -32 65v-78c12 0 22 6 32 13z" />
    <glyph glyph-name="l" unicode="l" horiz-adv-x="584" 
d="M571 109c0 -25 -61 -128 -86 -128c-18 0 -32 19 -58 19h-228c-67 0 -81 -6 -140 -29c-11 -4 -24 -9 -36 -9c-14 0 -22 7 -22 21c0 6 1 11 3 17c15 46 22 83 22 133v387c0 56 -26 90 -26 112c0 10 4 20 15 20c23 0 148 -66 148 -88c0 -13 -20 -18 -20 -53v-418
c0 -24 16 -62 44 -62h225c20 0 38 10 38 32c0 112 -84 180 -84 191c0 4 6 4 8 4c59 0 197 -104 197 -149z" />
    <glyph glyph-name="m" unicode="m" horiz-adv-x="992" 
d="M985 -33c0 -2 -1 -5 -4 -5c-4 0 -13 7 -15 9c-140 135 -235 338 -287 523c-55 -101 -107 -211 -185 -297c7 -19 24 -75 47 -75c13 0 21 14 36 14c6 0 8 -5 8 -10c0 -27 -85 -162 -105 -162c-66 0 -143 316 -156 374c-28 -137 -113 -249 -204 -351c-5 -6 -16 -25 -25 -25
c-5 0 -95 124 -95 140c0 9 6 14 14 14c15 0 30 -8 46 -8c114 0 222 183 252 278c-15 62 -34 194 -57 239c0 20 14 26 31 26c16 0 68 -36 118 -36c7 0 14 2 21 2c11 0 15 -12 15 -21c0 -3 -2 -8 -3 -10c-13 -13 -28 -33 -28 -52c0 -81 40 -229 73 -302
c85 109 105 250 105 385c0 9 -3 27 11 27c13 0 32 -11 41 -20c8 8 4 19 4 29c0 6 4 10 10 10c29 0 106 -46 130 -65c16 -13 13 -35 13 -53c0 -204 87 -384 182 -558c3 -6 7 -13 7 -20z" />
    <glyph glyph-name="n" unicode="n" 
d="M618 563c0 -13 -20 -18 -20 -53v-401c0 -21 17 -28 17 -37c0 -30 -82 -111 -106 -111c-18 0 -48 23 -48 42c0 14 13 39 20 51c-121 24 -303 210 -338 327v-272c0 -21 17 -28 17 -37c0 -30 -82 -111 -106 -111c-17 0 -54 27 -54 45c0 21 26 48 26 71v441
c0 56 -26 89 -26 112c0 10 4 20 15 20c23 0 148 -66 148 -88c0 -10 -9 -15 -14 -23c-9 -16 -6 -64 -6 -81c12 23 34 107 64 107c4 0 8 -3 10 -6c50 -192 72 -369 264 -478v438c0 56 -26 89 -26 112c0 10 4 20 15 20c23 0 148 -66 148 -88z" />
    <glyph glyph-name="o" unicode="o" horiz-adv-x="653" 
d="M596 317c0 -161 -109 -336 -285 -336s-284 175 -284 336c0 50 10 92 29 138c70 28 113 98 150 160c33 14 69 22 105 22c65 0 106 -36 160 -36c20 0 40 5 60 5c2 -1 4 -3 4 -6c0 -13 -26 -30 -26 -48c0 -4 3 -9 5 -12c55 -68 82 -133 82 -223zM479 317
c0 95 -43 289 -168 289c-124 0 -167 -195 -167 -289c0 -95 39 -305 167 -305c127 0 168 211 168 305z" />
    <glyph glyph-name="p" unicode="p" horiz-adv-x="653" 
d="M631 532l-3 -8c-13 -8 -38 3 -52 -14c-38 -208 -235 -323 -432 -346v-55c0 -21 17 -28 17 -37c0 -29 -82 -111 -106 -111c-18 0 -54 27 -54 46s26 48 26 70v470c0 51 -29 84 -30 97l4 6c5 3 11 3 17 3c58 0 115 -29 174 -29h296c12 0 14 26 31 26c2 0 6 -2 8 -3
c20 -18 103 -91 104 -115zM467 561c0 36 -36 31 -62 31h-230c-20 0 -31 -17 -31 -35v-361c127 11 323 241 323 365z" />
    <glyph glyph-name="q" unicode="q" horiz-adv-x="651" 
d="M595 319c0 -90 -34 -186 -98 -250c25 -31 52 -60 83 -86c4 -1 9 -4 9 -8c-4 -8 -11 -14 -20 -14c-30 0 -91 49 -116 68c-40 -30 -93 -46 -142 -46c-176 0 -283 176 -283 336c0 22 10 121 23 135c70 28 113 98 150 160c25 10 71 25 98 25c51 0 97 -7 139 -37
c13 -3 26 -5 39 -5c20 0 40 5 60 5c2 -1 4 -3 4 -6c0 -13 -26 -30 -26 -48c0 -4 3 -9 5 -12c47 -65 75 -135 75 -217zM479 319c0 93 -46 289 -168 289c-124 0 -166 -195 -166 -289c0 -95 37 -305 166 -305c42 0 70 30 97 57c-4 4 -8 5 -13 5c-9 0 -17 -4 -26 -4
c-7 0 -8 9 -8 14c0 21 54 135 72 135l1 -1c5 -1 9 -60 16 -71c17 49 29 118 29 170z" />
    <glyph glyph-name="r" unicode="r" horiz-adv-x="698" 
d="M699 -36c-133 18 -352 108 -426 226c-42 -17 -85 -21 -130 -26v-55c0 -22 17 -27 17 -37c0 -29 -82 -111 -106 -111c-19 0 -54 27 -54 48c0 15 26 47 26 68v470c0 52 -29 82 -30 97l4 6c5 3 11 3 17 3c58 0 115 -29 174 -29h296c12 0 14 26 31 26c2 0 6 -2 8 -3
c21 -18 102 -90 104 -115l-3 -8c-14 -8 -38 3 -52 -14c-19 -105 -109 -222 -203 -271c58 -104 225 -221 327 -275zM465 568c0 26 -38 24 -55 24h-236c-20 0 -31 -16 -31 -35v-361c41 0 68 19 100 43c-14 30 -54 22 -54 38c0 29 61 58 81 77c12 11 42 52 55 55c4 1 8 2 12 2
c6 0 9 -3 9 -9c0 -14 -5 -29 -5 -44c0 -10 1 -20 4 -29c45 48 120 171 120 239z" />
    <glyph glyph-name="s" unicode="s" horiz-adv-x="687" 
d="M636 176c0 -147 -252 -192 -360 -192c-74 0 -135 16 -206 32h-6c-16 0 -34 -53 -45 -53c-10 0 -13 35 -13 44c0 41 12 81 12 122c0 33 -19 59 -19 90c0 7 1 19 11 19c16 0 40 -29 49 -40c72 -82 198 -104 302 -104c41 0 238 14 238 77c0 143 -600 14 -600 276
c0 49 24 99 62 129c8 6 22 11 28 17c1 1 1 3 1 5c0 6 -32 27 -32 42c0 9 12 10 18 10c21 0 31 -26 65 -26c58 0 111 12 168 19c50 6 101 7 151 7h32c37 0 63 1 89 -26c1 -1 2 -3 4 -3c10 0 27 31 39 31c8 0 10 -7 10 -14c0 -55 -32 -112 -32 -172c0 -8 2 -16 2 -24
c0 -9 -2 -24 -15 -24c-10 0 -25 41 -30 50c-39 74 -235 81 -305 81c-56 0 -214 -6 -214 -92c0 -136 596 15 596 -281z" />
    <glyph glyph-name="t" unicode="t" horiz-adv-x="722" 
d="M704 583c0 -76 -77 -171 -158 -171c-3 0 -6 2 -7 5c39 27 67 84 67 131c0 14 -6 45 -25 45h-131c-25 0 -33 -13 -33 -37v-447c0 -21 17 -28 17 -37c0 -30 -82 -111 -106 -111c-17 0 -54 27 -54 45c0 21 26 48 26 71v482c0 11 1 34 -15 34h-111c-13 0 -37 -72 -45 -85
c-16 -26 -92 -119 -122 -119c-2 0 -4 1 -6 2c-3 3 -3 7 -3 11c0 35 29 83 29 143c0 46 -17 80 -17 90c0 11 8 16 17 16c21 0 57 -27 91 -27h156c-2 4 -3 9 -3 13c0 12 12 14 21 14c36 0 83 -27 107 -27h150c16 23 46 31 72 31c50 0 83 -20 83 -72z" />
    <glyph glyph-name="u" unicode="u" horiz-adv-x="653" 
d="M639 562c0 -5 -7 -16 -13 -16c-12 0 -21 8 -33 8c-5 0 -9 -4 -11 -8c19 -74 16 -154 16 -229h-1c0 -161 -109 -336 -285 -336c-44 0 -87 12 -130 12c-15 0 -29 -7 -44 -7c-10 0 -30 3 -30 17c0 21 36 24 36 40c0 9 -9 15 -14 21c-64 68 -104 187 -104 278v175
c0 56 -26 89 -26 112c0 10 4 20 15 20c23 0 148 -66 148 -88c0 -14 -21 -17 -20 -53l3 -191c1 -94 40 -305 167 -305s168 211 168 305v126c0 45 -24 146 -52 181c-3 4 -7 9 -7 15c0 14 20 17 30 17c28 0 187 -70 187 -94z" />
    <glyph glyph-name="v" unicode="v" horiz-adv-x="631" 
d="M619 510l-3 -6c-8 -8 -19 -5 -29 -5c-6 0 -11 -1 -15 -5c-102 -98 -173 -260 -200 -396c9 -19 31 -21 31 -46c0 -10 -54 -46 -65 -78c-5 -5 -12 -10 -19 -10c-8 0 -14 5 -19 10c-58 57 -150 238 -182 317c-39 97 -66 197 -103 294l-15 39c0 20 14 26 31 26
c15 0 68 -36 118 -36c7 0 14 2 21 2c11 0 15 -12 15 -21c0 -3 -2 -8 -3 -10c-13 -13 -28 -33 -28 -52c0 -5 1 -9 2 -13c37 -105 116 -323 191 -401c11 142 62 324 118 454c8 18 4 25 4 42c0 11 5 30 19 30c11 0 19 -10 25 -17c27 -33 52 -63 85 -91c8 -7 19 -15 21 -27z" />
    <glyph glyph-name="w" unicode="w" horiz-adv-x="873" 
d="M864 515l-3 -6c-8 -8 -19 -5 -29 -5c-5 0 -11 -1 -15 -5c-43 5 -134 -176 -148 -207c-18 -43 -34 -87 -46 -131c-14 -54 -24 -108 -23 -164v-10c0 -9 -2 -30 -15 -30c-12 0 -11 17 -11 24v109c-13 -25 -47 -62 -78 -62c-2 0 -9 2 -11 3v17c1 74 -29 249 -95 297
c-49 -57 -94 -124 -108 -199c6 -14 30 -41 30 -53c0 -3 -3 -7 -5 -9c-27 -36 -38 -71 -58 -110c-3 -6 -5 -10 -13 -10c-7 0 -10 5 -13 10c-77 129 -129 271 -165 416c-12 49 -17 102 -31 151c-8 28 -18 56 -29 83c0 20 14 26 31 26c16 0 68 -36 118 -36c7 0 14 2 21 2
c11 0 15 -12 15 -21c0 -3 -2 -8 -3 -10c-13 -13 -28 -33 -28 -52c0 -93 59 -277 103 -362c15 83 42 166 72 245c-8 8 -41 36 -41 45c0 6 5 7 9 7c15 0 31 -10 42 -18c9 16 44 89 59 89c30 0 55 -85 86 -114c6 -6 17 -16 18 -25c-3 -16 -30 -13 -42 -13c-6 0 -15 1 -20 -5
c58 -47 95 -113 136 -174c24 146 77 280 140 412c0 12 4 30 19 30c11 0 19 -9 25 -17c27 -33 52 -63 85 -91c8 -6 20 -16 21 -27z" />
    <glyph glyph-name="x" unicode="x" horiz-adv-x="619" 
d="M605 519l-3 -6c-7 -8 -19 -5 -29 -5c-36 0 -177 -192 -201 -222c13 -19 113 -155 128 -155c18 0 34 41 50 41c8 0 14 -4 14 -12c0 -10 -16 -44 -19 -57c-9 -34 -11 -71 -11 -106v-10c0 -17 -18 -29 -33 -29c-34 0 -186 208 -209 240c-44 -44 -233 -238 -284 -238
c-7 0 -15 4 -15 12c0 17 23 29 34 38c79 62 160 171 213 256c-27 41 -225 332 -225 358c0 23 18 34 39 34c34 0 68 -12 103 -12c21 0 37 13 54 13c6 0 8 -4 8 -9c0 -28 -44 -36 -44 -63c0 -24 115 -188 137 -221c20 33 142 231 143 258c1 12 2 30 19 30c11 0 19 -9 25 -17
c27 -33 52 -63 85 -91c8 -6 20 -16 21 -27z" />
    <glyph glyph-name="y" unicode="y" horiz-adv-x="635" 
d="M629 519l-3 -6c-8 -8 -19 -5 -29 -5c-11 0 -16 -4 -21 -14c-12 -24 -22 -51 -34 -75c-51 -105 -118 -206 -207 -282c-90 -77 -202 -155 -318 -182l-7 -1c-6 0 -13 2 -13 9c0 14 23 22 32 26c93 46 185 124 249 205c-103 63 -195 259 -234 366c-6 18 -41 67 -41 77
c0 7 1 14 9 14c49 0 97 -10 146 -10c23 0 14 -50 14 -65c0 -110 39 -281 131 -353c81 102 162 273 176 401c1 12 2 30 19 30c11 0 19 -10 25 -17c28 -33 52 -63 85 -91c8 -7 19 -15 21 -27z" />
    <glyph glyph-name="z" unicode="z" horiz-adv-x="651" 
d="M634 9c0 -4 -3 -7 -6 -9h-417c-20 0 -33 -42 -57 -42c-20 0 -132 108 -132 122c0 30 50 6 75 36l350 415c7 8 10 19 10 30c0 15 -8 32 -26 32h-258c-13 0 -37 -72 -45 -85c-16 -26 -92 -119 -122 -119c-2 0 -4 1 -6 2c-3 3 -3 7 -3 11c0 35 29 83 29 143
c0 46 -17 80 -17 90s8 16 17 16c20 0 57 -27 91 -27h352c12 0 14 26 31 26c2 0 6 -2 8 -3c18 -16 117 -115 117 -136l-3 -8c-6 -4 -18 -2 -26 -2c-11 0 -24 -1 -31 -10c-36 -43 -361 -420 -361 -442c0 -10 9 -18 19 -18h217c17 13 90 77 107 77c12 0 87 -79 87 -99z" />
    <glyph glyph-name="braceleft" unicode="{" horiz-adv-x="327" 
d="M321 -32c-10 -1 -20 -2 -30 -2c-63 0 -152 28 -182 89c-28 58 -18 125 -18 187c0 55 -23 78 -73 95c97 44 93 70 102 172c11 116 42 169 164 178l24 -31c-205 -29 -55 -250 -191 -352c70 -90 -32 -186 135 -224z" />
    <glyph glyph-name="bar" unicode="|" horiz-adv-x="500" 
d="M282 -167h-65v834h65v-834z" />
    <glyph glyph-name="braceright" unicode="}" horiz-adv-x="327" 
d="M308 317c-97 -44 -93 -69 -102 -172c-10 -117 -42 -169 -164 -178l-24 31c206 29 54 251 192 352c-72 92 34 185 -136 224l-69 112c10 1 20 1 30 1c63 0 153 -28 183 -89c29 -60 17 -123 17 -186c0 -55 21 -78 73 -95z" />
    <glyph glyph-name="asciitilde" unicode="~" horiz-adv-x="667" 
d="M540 723c-26 -48 -77 -99 -135 -99c-60 0 -114 42 -175 42c-46 0 -58 -26 -87 -55l-16 10c28 49 74 101 136 101c58 0 110 -40 168 -40c38 0 70 23 93 52z" />
    <glyph glyph-name="quotesinglbase" unicode="&#x201a;" horiz-adv-x="321" 
d="M223 29c0 -72 -70 -101 -129 -121c-4 -1 -3 -1 -6 -1c-1 0 -1 0 -1 1c0 9 70 63 70 91c0 22 -48 12 -62 12c-37 0 -27 84 -27 112c0 21 8 29 30 29c25 0 124 10 123 -33c-1 -9 -2 -18 -2 -27c0 -21 4 -42 4 -63z" />
    <glyph glyph-name="afii10100" unicode="&#x453;" horiz-adv-x="480" 
d="M497 631c-132 0 -184 -79 -210 -197c5 1 11 1 16 1c44 0 84 -10 125 -24l-68 -106c-30 13 -61 24 -93 32c-21 -118 -70 -439 -239 -439c-68 0 -127 43 -167 95l102 142c14 -41 32 -110 85 -110c100 0 136 249 151 319c-35 -4 -64 -11 -87 -39l-25 17c38 55 65 77 128 100
c21 150 120 273 267 315z" />
    <glyph glyph-name="quotedblbase" unicode="&#x201e;" horiz-adv-x="448" 
d="M409 13c0 -70 -72 -100 -130 -119c-4 -1 -3 -1 -6 -1c-1 0 -1 0 -1 1c0 9 70 63 70 91c0 22 -48 12 -62 12c-37 0 -25 55 -25 79c0 8 -4 17 -4 26c0 24 13 36 37 36c25 0 119 9 118 -33c-1 -8 -2 -17 -2 -26c0 -22 5 -44 5 -66zM185 15c0 -72 -70 -101 -129 -121
c-4 -1 -3 -1 -6 -1c-1 0 -1 0 -1 1c0 9 70 63 70 91c0 22 -48 12 -62 12c-34 0 -23 34 -23 56c0 19 -4 37 -4 55c0 25 12 30 35 30c25 0 119 9 118 -33c-1 -9 -2 -18 -2 -27c0 -21 4 -42 4 -63z" />
    <glyph glyph-name="ellipsis" unicode="&#x2026;" horiz-adv-x="752" 
d="M679 76v-37c0 -46 -7 -39 -44 -39c-15 0 -30 -4 -46 -4c-13 0 -26 6 -26 21s6 30 6 45c0 12 -6 24 -6 37c0 24 37 18 53 18c41 0 63 7 63 -41zM430 76v-37c0 -46 -7 -39 -44 -39c-15 0 -30 -4 -46 -4c-13 0 -26 6 -26 21s6 30 6 45c0 12 -6 24 -6 37c0 24 37 18 53 18
c41 0 63 7 63 -41zM181 76v-37c0 -46 -7 -39 -44 -39c-15 0 -30 -4 -46 -4c-13 0 -26 6 -26 21s6 30 6 45c0 12 -6 24 -6 37c0 24 37 18 53 18c41 0 63 7 63 -41z" />
    <glyph glyph-name="dagger" unicode="&#x2020;" horiz-adv-x="480" 
d="M431 474c-61 -37 -95 -57 -166 -68c0 -110 18 -182 54 -286l-125 -120c-30 71 -41 131 -41 208c0 66 10 131 27 194c-51 2 -101 8 -150 21l73 104c31 -22 62 -43 98 -57c22 60 51 120 88 172l21 -13c-27 -62 -39 -105 -43 -173c7 -1 15 -1 22 -1c57 0 84 11 136 35z" />
    <glyph glyph-name="daggerdbl" unicode="&#x2021;" horiz-adv-x="480" 
d="M451 248c-51 -31 -92 -55 -151 -69l19 -59l-125 -120c-26 58 -35 107 -39 170c-49 4 -97 10 -145 22l80 115c21 -15 43 -30 66 -43c4 47 11 93 24 138c-51 2 -101 8 -150 21l73 104c31 -22 63 -42 98 -57c22 60 51 120 88 172l21 -13c-27 -62 -39 -105 -43 -173
c7 -1 15 -1 22 -1c58 0 84 11 136 35l6 -16c-59 -36 -97 -58 -166 -68c0 -60 6 -120 21 -178h10c61 0 94 13 149 38z" />
    <glyph glyph-name="Euro" unicode="&#x20ac;" horiz-adv-x="500" 
d="M392 723l-5 -19c-67 10 -131 34 -187 72c-26 -29 -51 -47 -85 -66l-13 16c53 43 85 97 107 161c32 -75 106 -140 183 -164z" />
    <glyph glyph-name="perthousand" unicode="&#x2030;" horiz-adv-x="864" 
d="M824 102c0 -66 -64 -116 -127 -116c-66 0 -118 53 -118 119c0 69 58 116 125 116c62 0 120 -57 120 -119zM270 552c0 -54 -50 -114 -106 -114c-64 0 -114 50 -114 114c0 67 56 96 116 96c54 0 104 -39 104 -96zM606 505c0 -18 -45 -7 -56 -7c-6 0 -13 -1 -19 -3
c-169 -67 -290 -183 -377 -342c-19 -35 -36 -71 -50 -108c-3 -6 -23 -63 -27 -65l-2 6c39 238 195 449 365 613c15 15 33 29 56 29c37 0 110 -89 110 -123zM533 102c0 -66 -64 -116 -127 -116c-66 0 -118 53 -118 119c0 69 58 116 125 116c62 0 120 -57 120 -119zM768 112
c0 25 -28 47 -51 47s-56 -18 -56 -44c0 -38 29 -53 63 -53c25 0 44 26 44 50zM231 558c0 25 -22 39 -45 39c-22 0 -46 -15 -46 -39s24 -39 46 -39c23 0 45 14 45 39zM477 112c0 25 -28 47 -51 47s-56 -18 -56 -44c0 -38 29 -53 63 -53c25 0 44 26 44 50z" />
    <glyph glyph-name="guilsinglleft" unicode="&#x2039;" horiz-adv-x="510" 
d="M413 434c0 -12 -15 -22 -25 -22c-68 0 -127 -39 -176 -83c82 -25 151 -83 193 -156c2 -4 4 -6 4 -10c0 -6 -3 -12 -10 -12c-5 0 -13 9 -16 12c-77 72 -110 83 -213 85c-19 0 -18 14 -17 29c-9 2 -31 -32 -41 -32c-3 0 -3 4 -3 5c0 53 207 268 241 268c26 0 14 -60 54 -75
c5 -2 9 -4 9 -9z" />
    <glyph glyph-name="quoteleft" unicode="&#x2018;" horiz-adv-x="189" 
d="M171 523c0 -21 -8 -29 -30 -29c-25 0 -124 -10 -123 33c1 9 2 18 2 27c0 21 -4 42 -4 63c0 72 70 101 129 121c4 1 3 1 6 1c1 0 1 0 1 -1c0 -9 -70 -63 -70 -91c0 -22 48 -12 62 -12c37 0 27 -84 27 -112z" />
    <glyph glyph-name="quoteright" unicode="&#x2019;" horiz-adv-x="189" 
d="M172 563c0 -72 -70 -101 -129 -121c-4 -1 -3 -1 -6 -1c-1 0 -1 0 -1 1c0 9 70 63 70 91c0 22 -48 12 -62 12c-37 0 -27 84 -27 112c0 21 8 29 30 29c25 0 124 10 123 -33c-1 -9 -2 -18 -2 -27c0 -21 4 -42 4 -63z" />
    <glyph glyph-name="quotedblleft" unicode="&#x201c;" horiz-adv-x="455" 
d="M408 497c0 -22 -16 -29 -35 -29c-25 0 -124 -10 -123 33c1 9 2 18 2 27c0 21 -4 42 -4 63c0 72 70 101 129 121c4 1 3 1 6 1c1 0 1 0 1 -1c0 -9 -70 -63 -70 -91c0 -22 48 -12 62 -12c34 0 22 -30 22 -52s10 -40 10 -60zM185 498c0 -25 -19 -30 -40 -30
c-25 0 -119 -9 -118 33c1 9 2 18 2 27c0 21 -4 42 -4 63c0 72 70 101 129 121c4 1 3 1 6 1c1 0 1 0 1 -1c0 -9 -70 -63 -70 -91c0 -22 48 -12 62 -12c34 0 22 -30 22 -51s10 -40 10 -60z" />
    <glyph glyph-name="quotedblright" unicode="&#x201d;" horiz-adv-x="455" 
d="M403 509c0 -72 -70 -101 -129 -121c-4 -1 -3 -1 -6 -1c-1 0 -1 0 -1 1c0 9 70 63 70 91c0 22 -48 12 -62 12c-34 0 -22 30 -22 51s-10 40 -10 60c0 25 19 30 40 30c25 0 119 9 118 -33c-1 -9 -2 -18 -2 -27c0 -21 4 -42 4 -63zM180 509c0 -72 -70 -101 -129 -121
c-4 -1 -3 -1 -6 -1c-1 0 -1 0 -1 1c0 9 70 63 70 91c0 22 -48 12 -62 12c-34 0 -22 30 -22 52s-10 40 -10 60c0 22 16 29 35 29c25 0 124 10 123 -33c-1 -9 -2 -18 -2 -27c0 -21 4 -42 4 -63z" />
    <glyph glyph-name="bullet" unicode="&#x2022;" horiz-adv-x="667" 
d="M473 339c0 -76 -62 -139 -138 -139s-139 62 -139 138c0 79 63 139 141 139c75 0 136 -64 136 -138z" />
    <glyph glyph-name="endash" unicode="&#x2013;" horiz-adv-x="642" 
d="M585 295c0 -4 -3 -7 -6 -9h-523c-8 0 -20 4 -20 14c0 13 18 17 28 17h327c17 13 87 77 107 77c14 0 87 -76 87 -99z" />
    <glyph glyph-name="emdash" unicode="&#x2014;" horiz-adv-x="752" 
d="M758 295c0 -4 -3 -7 -6 -9h-731c-8 0 -20 4 -20 14c0 13 18 17 28 17h535c17 13 87 77 107 77c14 0 87 -76 87 -99z" />
    <glyph glyph-name="trademark" unicode="&#x2122;" horiz-adv-x="725" 
d="M728 362l-67 -75c-36 54 -48 101 -48 166c0 29 4 58 10 87c-26 -22 -63 -54 -77 -86c7 -29 13 -59 13 -89c0 -26 -3 -52 -6 -78h-26c1 13 2 26 2 39c0 23 -1 47 -9 69c-11 -32 -8 -75 -8 -108h-27c-2 20 -4 40 -4 60c0 34 4 67 14 99c-12 21 -44 59 -62 75
c3 -25 6 -51 6 -76c0 -64 -21 -112 -62 -160l-64 74c49 44 72 99 72 165c0 11 -1 21 -2 32c-12 7 -24 13 -37 19l25 31c-10 14 -21 28 -32 42l20 17c11 -12 21 -24 31 -37l25 31c56 -44 75 -74 104 -138c35 60 60 89 114 134l21 -25c10 12 20 23 31 34l19 -19
c-11 -12 -20 -24 -29 -38l23 -26c-10 -4 -19 -9 -29 -13c-1 -7 -1 -15 -1 -22c0 -69 21 -127 60 -184zM331 652c-36 -46 -74 -65 -127 -87c12 -32 19 -61 19 -95c0 -72 -26 -134 -70 -190l-73 71c44 48 78 111 78 178c0 8 -1 16 -2 23c-60 2 -117 13 -171 39l57 67
c32 -17 58 -28 94 -33l-13 25l25 12c9 -13 18 -26 27 -40c44 1 103 13 137 43z" />
    <glyph glyph-name="guilsinglright" unicode="&#x203a;" horiz-adv-x="483" 
d="M403 321c0 -5 -6 -6 -9 -6c-9 0 -17 3 -25 7c4 -9 9 -19 9 -30c0 -16 -15 -15 -27 -15c-109 0 -181 -113 -195 -113c-3 0 -5 2 -5 5c0 30 99 188 136 179c-41 10 -179 111 -179 155c0 6 5 8 10 8c11 0 21 -4 32 -4c28 0 48 19 72 19c11 0 24 -5 26 -17
c10 -86 65 -137 141 -176c5 -3 14 -5 14 -12z" />
    <glyph glyph-name="afii10193" unicode="&#x45f;" horiz-adv-x="480" 
d="M421 197l-44 -45l-137 137l-137 -137l-44 45l137 136l-137 137l44 44l137 -136l137 136l44 -44l-137 -137z" />
    <glyph glyph-name="nbspace" horiz-adv-x="453" 
 />
    <glyph glyph-name="afii10110" unicode="&#x45e;" horiz-adv-x="480" 
d="M442 500c-12 -7 -23 -14 -34 -22c7 -10 14 -20 20 -30l-24 -17l-24 30c-29 -30 -34 -48 -46 -88c-19 26 -28 45 -28 77c0 26 7 49 18 72c-21 10 -39 19 -63 21v-354c8 -1 16 -2 24 -2c63 0 98 28 139 73l14 -12l-127 -161c-17 -3 -33 -4 -50 -4v-55h-32v59
c-117 23 -182 121 -182 237c0 113 60 231 182 248v56h32v-55c29 -2 54 -13 80 -25c13 13 27 23 41 34zM229 196v346c-82 -18 -121 -98 -121 -176c0 -82 43 -145 121 -170z" />
    <glyph glyph-name="afii10057" unicode="&#x408;" horiz-adv-x="480" 
d="M475 29l-21 -24c-56 36 -106 62 -174 62c-71 0 -120 -36 -173 -79l-26 32c-14 -12 -29 -21 -45 -29l-13 16c12 13 25 26 36 40l-40 50c25 14 50 26 78 35c8 35 11 70 11 106c0 23 -1 46 -3 69c-30 -6 -56 -17 -74 -43l-26 19c27 44 49 71 95 96c-1 76 23 144 70 204
c47 59 73 75 146 93l39 -124c-79 -27 -135 -65 -167 -145c11 1 21 2 32 2c45 0 85 -11 127 -27l-69 -118c-31 15 -63 31 -97 39c0 -58 -2 -106 -22 -161c8 1 16 1 24 1c118 0 201 -43 292 -114z" />
    <glyph glyph-name="currency" unicode="&#xa4;" horiz-adv-x="480" 
d="M463 337c0 -51 -16 -91 -46 -131l41 -41l-50 -49l-42 42c-23 -16 -47 -29 -72 -41l14 -23c-15 -3 -30 -6 -45 -6c-58 0 -112 27 -155 64l-36 -36l-49 49l38 39c-26 39 -44 83 -44 131c0 49 18 86 50 122l-44 44l49 50l47 -47c13 10 27 18 41 27l-18 23c23 6 46 13 70 13
c52 0 115 -26 157 -55l39 39l50 -50l-39 -38c29 -40 44 -76 44 -126zM380 305c0 110 -81 162 -181 169l-25 39c-43 -45 -77 -86 -77 -151c0 -108 69 -151 162 -178l24 -48c57 47 97 92 97 169z" />
    <glyph glyph-name="afii10050" unicode="&#x490;" horiz-adv-x="480" 
d="M478 657c-74 -80 -116 -154 -149 -258h101v-40h-112c-6 -20 -10 -40 -14 -60h126v-40h-134c-14 -90 -12 -175 -9 -266l-141 104c13 56 29 109 51 162h-140v40h157l4 10c-8 17 -17 34 -27 50h-134v40h108c-46 61 -98 108 -163 148l117 126c74 -69 117 -165 149 -259
c52 100 113 188 196 265z" />
    <glyph glyph-name="brokenbar" unicode="&#xa6;" horiz-adv-x="500" 
d="M282 327h-65v340h65v-340zM282 -167h-65v320h65v-320z" />
    <glyph glyph-name="section" unicode="&#xa7;" horiz-adv-x="520" 
d="M441 686c0 -27 -24 -50 -51 -50c-68 0 -74 83 -119 83c-44 0 -64 -53 -64 -90c0 -209 233 -307 233 -545c0 -148 -90 -272 -246 -272c-38 0 -112 19 -112 68c0 27 27 45 52 45c60 0 68 -71 115 -71c49 0 63 65 63 104c0 172 -235 250 -235 523c0 144 82 283 240 283
c47 0 124 -19 124 -78zM395 66c0 243 -264 348 -232 576c-27 -55 -40 -90 -40 -151c0 -252 233 -347 233 -512c0 -21 -4 -42 -9 -62c34 48 48 90 48 149z" />
    <glyph glyph-name="afii10023" unicode="&#x401;" horiz-adv-x="651" 
d="M404 724c0 -30 -78 -96 -106 -96l-9 5c-1 2 0 2 0 4c0 16 34 47 27 95h78c6 0 10 -2 10 -8zM257 724c0 -30 -78 -96 -106 -96l-9 5c-1 2 0 2 0 4c0 16 34 47 27 95h78c6 0 10 -2 10 -8zM636 9c0 -4 -3 -7 -6 -9l-488 -1c-39 0 -88 -39 -104 -39c-11 0 -39 28 -39 39
c0 9 26 60 26 112v418c0 49 -30 89 -30 101l4 6c2 2 5 2 8 2c24 0 83 -65 174 -65h189c17 13 90 77 107 77c12 0 87 -79 87 -99c0 -4 -3 -7 -6 -9h-379c-26 0 -37 -32 -37 -54v-171h228c17 13 90 77 107 77c12 0 87 -79 87 -99c0 -4 -3 -7 -6 -9h-416v-200
c0 -25 10 -54 39 -54l261 -1c17 13 90 77 107 77c12 0 87 -79 87 -99z" />
    <glyph glyph-name="copyright" unicode="&#xa9;" horiz-adv-x="727" 
d="M710 334c0 -195 -157 -347 -351 -347c-189 0 -342 160 -342 347c0 191 156 346 347 346s346 -155 346 -346zM666 334c0 166 -136 302 -302 302c-167 0 -303 -135 -303 -302c0 -164 134 -303 299 -303c169 0 306 133 306 303zM572 161c0 -51 -163 -66 -197 -66
c-125 0 -240 66 -240 203c0 67 52 116 104 150c1 1 6 3 6 6c0 2 -7 2 -7 2c-14 0 -28 -13 -29 -13c-17 0 -58 77 -58 94c0 3 3 3 5 3c25 0 99 -44 132 -44c54 0 105 25 163 25c30 0 68 3 90 -20c1 -1 1 -1 2 -1c2 0 10 22 16 22c5 0 6 -3 6 -8c0 -37 -20 -78 -20 -130
c0 -6 -1 -15 -9 -15c-8 3 -13 24 -16 32c-18 50 -111 53 -153 53c-87 0 -210 -65 -210 -166c0 -93 102 -142 182 -142c61 0 130 24 167 75c13 18 14 83 26 84c9 -5 3 -45 3 -55c0 -59 37 -34 37 -89z" />
    <glyph glyph-name="guillemotleft" unicode="&#xab;" horiz-adv-x="655" 
d="M619 503c0 -44 -138 -145 -179 -155c37 9 136 -149 136 -179c0 -3 -2 -5 -5 -5c-15 0 -84 113 -198 113c-11 0 -24 1 -24 15c0 11 5 21 9 30c-8 -4 -16 -7 -25 -7c-3 0 -9 1 -9 6c3 7 8 9 14 12c77 42 130 87 141 176c2 12 15 17 26 17c24 0 44 -19 72 -19
c11 0 21 4 32 4c5 0 10 -2 10 -8zM375 434c0 -12 -15 -22 -25 -22c-68 0 -127 -39 -176 -83c82 -25 151 -83 193 -156c2 -4 4 -6 4 -10c0 -6 -3 -12 -10 -12c-5 0 -13 9 -16 12c-77 72 -110 83 -213 85c-19 0 -18 14 -17 29c-9 2 -31 -32 -41 -32c-3 0 -3 4 -3 5
c0 53 207 268 241 268c26 0 14 -60 54 -75c5 -2 9 -4 9 -9z" />
    <glyph glyph-name="logicalnot" unicode="&#xac;" horiz-adv-x="500" 
d="M466 0h-111v219h-321v48h432v-267z" />
    <glyph glyph-name="sfthyphen" horiz-adv-x="500" 
d="M439 303h-378v60h378v-60z" />
    <glyph glyph-name="registered" unicode="&#xae;" horiz-adv-x="727" 
d="M710 334c0 -195 -157 -347 -351 -347c-189 0 -342 160 -342 347c0 191 156 346 347 346s346 -155 346 -346zM666 334c0 166 -136 302 -302 302c-167 0 -303 -135 -303 -302c0 -164 134 -303 299 -303c169 0 306 133 306 303zM565 116c-88 -1 -197 68 -242 142
c-25 -10 -51 -13 -78 -16v-33c0 -11 10 -19 10 -21c0 -19 -48 -68 -64 -68c-9 0 -32 16 -32 25c0 17 16 30 16 45v282c0 30 -18 52 -18 59c0 5 9 5 12 5c35 0 69 -18 105 -18h177c8 0 9 16 20 16c4 0 66 -57 66 -71c0 -12 -23 -3 -33 -13c-11 -63 -65 -134 -122 -163
c39 -70 113 -134 183 -171zM438 484c0 16 -22 15 -32 15h-143c-12 0 -18 -10 -18 -21v-217c24 0 41 12 60 26c-8 19 -33 12 -33 23c0 10 83 80 89 80c10 0 2 -25 2 -31s1 -12 3 -18c27 28 72 103 72 143z" />
    <glyph glyph-name="afii10056" unicode="&#x407;" horiz-adv-x="500" 
d="M412 809c-48 -53 -112 -92 -186 -92c-49 0 -94 16 -138 37l50 69c41 -23 78 -36 126 -36c46 0 94 11 133 37z" />
    <glyph glyph-name="degree" unicode="&#xb0;" horiz-adv-x="387" 
d="M331 539c0 -75 -63 -136 -138 -136c-76 0 -138 60 -138 137c0 74 65 134 138 134c74 0 138 -60 138 -135zM274 538c0 44 -37 80 -81 80c-43 0 -81 -36 -81 -79c0 -44 37 -80 81 -80c43 0 81 35 81 79z" />
    <glyph glyph-name="plusminus" unicode="&#xb1;" horiz-adv-x="480" 
d="M429 359h-156v-134h-65v134h-157v60h157v138h65v-138h156v-60zM429 101h-378v60h378v-60z" />
    <glyph glyph-name="afii10055" unicode="&#x406;" horiz-adv-x="311" 
d="M296 402c0 -1 -1 -2 -3 -2h-292c39 157 219 98 219 212c0 55 -46 83 -96 83c-80 0 -87 -38 -89 -113c-18 30 -28 67 -28 101c0 10 3 44 18 44s37 -18 60 -18c28 0 57 8 86 8c49 0 110 -11 110 -73c0 -121 -181 -116 -193 -228h111c8 6 46 38 53 38c2 0 5 -1 7 -2
c9 -11 37 -37 37 -50z" />
    <glyph glyph-name="afii10103" unicode="&#x456;" horiz-adv-x="361" 
d="M332 477c0 -73 -129 -86 -181 -86c-56 0 -151 50 -151 108c0 6 2 12 9 13c21 4 57 13 77 13c6 0 11 -6 12 -12l-5 -8c-11 -7 -27 -20 -27 -35c0 -39 53 -62 85 -62c42 0 116 28 116 79c0 29 -36 50 -61 50c-13 0 -7 -12 -14 -12c-15 0 -47 35 -47 51c0 1 90 83 90 103
c0 8 -10 10 -15 10h-116c-62 0 -65 -63 -66 -111c-18 30 -28 66 -28 101c0 11 1 26 8 35c1 5 5 8 10 8c15 0 37 -17 63 -17h175c16 0 30 10 45 10c6 0 9 -4 9 -10l-1 -6c-11 -15 -104 -137 -104 -138c3 -6 11 -1 15 -1c60 0 102 -15 102 -83z" />
    <glyph glyph-name="afii10098" unicode="&#x491;" horiz-adv-x="500" 
d="M361 708c-57 -61 -133 -102 -217 -110l-5 21c66 34 146 92 173 165z" />
    <glyph glyph-name="mu" unicode="&#xb5;" horiz-adv-x="480" 
d="M481 35c-11 -6 -91 -46 -98 -46c-38 0 -46 51 -52 80c-44 -44 -81 -84 -147 -84c-61 0 -91 32 -110 87v-25c0 -64 25 -126 25 -188c0 -26 -16 -50 -44 -50s-45 23 -45 49c0 21 3 42 7 62c31 179 29 356 29 537h87v-286c0 -57 4 -136 81 -136c51 0 84 34 112 73v349h86
v-336c0 -33 -4 -78 40 -78c10 0 20 4 29 9v-17z" />
    <glyph glyph-name="mu" unicode="&#x3bc;" horiz-adv-x="480" 
d="M481 35c-11 -6 -91 -46 -98 -46c-38 0 -46 51 -52 80c-44 -44 -81 -84 -147 -84c-61 0 -91 32 -110 87v-25c0 -64 25 -126 25 -188c0 -26 -16 -50 -44 -50s-45 23 -45 49c0 21 3 42 7 62c31 179 29 356 29 537h87v-286c0 -57 4 -136 81 -136c51 0 84 34 112 73v349h86
v-336c0 -33 -4 -78 40 -78c10 0 20 4 29 9v-17z" />
    <glyph glyph-name="paragraph" unicode="&#xb6;" horiz-adv-x="480" 
d="M484 667l-17 -28c-30 0 -60 -1 -90 -2l84 -139c-38 -109 -66 -218 -66 -334c0 -96 12 -175 47 -264l-15 -32c-111 199 -104 365 -97 585c-19 -79 -28 -153 -28 -234c0 -118 9 -209 53 -319l-14 -32c-70 114 -94 219 -102 352c-11 -3 -22 -5 -34 -5
c-114 0 -192 122 -192 227c0 208 259 226 413 226c19 0 39 0 58 -1zM362 637c-22 -2 -45 -4 -67 -8l49 -81c5 30 11 59 18 89zM272 625c-85 -21 -173 -62 -173 -165c0 -60 41 -107 99 -117l39 -67c0 118 10 233 35 349z" />
    <glyph glyph-name="periodcentered" unicode="&#xb7;" horiz-adv-x="319" 
d="M250 596l-18 -33c1 -22 2 -45 2 -67c0 -104 -2 -150 -46 -245l-69 90c46 70 58 97 70 180c-45 -27 -79 -38 -132 -38c-10 0 -19 0 -29 1l2 22c100 2 124 38 153 129l17 -10v25l21 9l7 -50z" />
    <glyph glyph-name="periodcentered" unicode="&#x2219;" horiz-adv-x="319" 
d="M250 596l-18 -33c1 -22 2 -45 2 -67c0 -104 -2 -150 -46 -245l-69 90c46 70 58 97 70 180c-45 -27 -79 -38 -132 -38c-10 0 -19 0 -29 1l2 22c100 2 124 38 153 129l17 -10v25l21 9l7 -50z" />
    <glyph glyph-name="afii10071" unicode="&#x451;" horiz-adv-x="651" 
d="M404 724c0 -30 -78 -96 -106 -96l-9 5c-1 2 0 2 0 4c0 16 34 47 27 95h78c6 0 10 -2 10 -8zM257 724c0 -30 -78 -96 -106 -96l-9 5c-1 2 0 2 0 4c0 16 34 47 27 95h78c6 0 10 -2 10 -8zM636 9c0 -4 -3 -7 -6 -9l-488 -1c-39 0 -88 -39 -104 -39c-11 0 -39 28 -39 39
c0 9 26 60 26 112v418c0 49 -30 89 -30 101l4 6c2 2 5 2 8 2c24 0 83 -65 174 -65h189c17 13 90 77 107 77c12 0 87 -79 87 -99c0 -4 -3 -7 -6 -9h-379c-26 0 -37 -32 -37 -54v-171h228c17 13 90 77 107 77c12 0 87 -79 87 -99c0 -4 -3 -7 -6 -9h-416v-200
c0 -25 10 -54 39 -54l261 -1c17 13 90 77 107 77c12 0 87 -79 87 -99z" />
    <glyph glyph-name="afii61352" unicode="&#x2116;" horiz-adv-x="1102" 
d="M952 392c0 -66 -64 -116 -127 -116c-66 0 -118 53 -118 119c0 69 58 116 125 116c62 0 120 -57 120 -119zM1047 166c0 -25 -73 -30 -91 -30c-72 0 -214 43 -268 92c-5 4 -16 17 -16 24c0 4 5 5 8 5c22 0 85 -37 159 -37c35 0 84 6 109 34c11 7 21 24 35 24
c13 0 15 -20 17 -29c6 -36 47 -66 47 -83zM653 563c0 -13 -20 -18 -20 -53v-401c0 -21 17 -28 17 -37c0 -30 -82 -111 -106 -111c-18 0 -48 23 -48 42c0 14 13 39 20 51c-121 24 -303 210 -338 327v-272c0 -21 17 -28 17 -37c0 -30 -82 -111 -106 -111c-17 0 -54 27 -54 45
c0 21 26 48 26 71v441c0 56 -26 89 -26 112c0 10 4 20 15 20c23 0 148 -66 148 -88c0 -10 -9 -15 -14 -23c-9 -16 -6 -64 -6 -81c12 23 34 107 64 107c4 0 8 -3 10 -6c50 -192 72 -369 264 -478v438c0 56 -26 89 -26 112c0 10 4 20 15 20c23 0 148 -66 148 -88zM894 367
c0 25 -28 47 -51 47s-56 -18 -56 -44c0 -38 29 -53 63 -53c25 0 44 26 44 50z" />
    <glyph glyph-name="afii10101" unicode="&#x454;" horiz-adv-x="320" 
d="M283 530c0 -66 -64 -116 -127 -116c-66 0 -118 53 -118 119c0 69 58 116 125 116c62 0 120 -57 120 -119zM225 505c0 25 -28 47 -51 47s-56 -18 -56 -44c0 -38 29 -53 63 -53c25 0 44 26 44 50z" />
    <glyph glyph-name="guillemotright" unicode="&#xbb;" horiz-adv-x="655" 
d="M604 250c0 -1 0 -5 -3 -5c-10 0 -32 34 -41 32v-8c1 -14 -2 -21 -17 -21c-97 -2 -143 -15 -213 -85c-5 -5 -9 -12 -16 -12s-10 6 -10 12c24 72 127 145 197 166c-49 44 -108 83 -176 83c-10 0 -25 10 -25 22c0 4 6 8 9 9c39 18 30 75 54 75c34 0 241 -215 241 -268z
M351 321c0 -5 -6 -6 -9 -6c-9 0 -17 3 -25 7c4 -9 9 -19 9 -30c0 -16 -15 -15 -27 -15c-109 0 -181 -113 -195 -113c-3 0 -5 2 -5 5c0 30 99 188 136 179c-41 10 -179 111 -179 155c0 6 5 8 10 8c11 0 21 -4 32 -4c28 0 48 19 72 19c11 0 24 -5 26 -17
c10 -86 65 -137 141 -176c5 -3 14 -5 14 -12z" />
    <glyph glyph-name="afii10104" unicode="&#x457;" horiz-adv-x="480" 
d="M284 481c0 -23 -20 -44 -43 -44c-24 0 -44 20 -44 44s20 43 44 43c23 0 43 -20 43 -43zM429 303h-378v60h378v-60zM284 187c0 -23 -20 -44 -43 -44c-24 0 -44 20 -44 44s20 43 44 43c23 0 43 -20 43 -43z" />
    <glyph glyph-name="afii10017" unicode="&#x410;" horiz-adv-x="683" 
d="M682 -32c0 -2 0 -6 -3 -6c-38 19 -156 210 -173 255h-252c-40 -68 -98 -222 -170 -255c-18 18 -86 99 -87 122c1 4 5 7 9 8c72 19 118 68 164 125c-14 0 -50 -6 -50 15c0 25 58 16 74 16c49 60 142 257 169 332c-4 14 -19 58 -19 71c0 1 2 1 5 1c18 0 123 -20 138 -27v-4
c0 -9 -13 -28 -13 -48c0 -29 78 -282 93 -325c17 0 79 10 79 -16c0 -24 -52 -15 -68 -15c23 -67 49 -132 83 -194c7 -14 21 -39 21 -55zM488 248c-33 66 -100 214 -112 285c-25 -96 -72 -194 -112 -285h43c13 12 54 60 70 60c15 0 56 -48 68 -60h43z" />
    <glyph glyph-name="afii10018" unicode="&#x411;" 
d="M636 239c0 -16 -21 -13 -32 -13c-18 0 -24 -17 -33 -30c-97 -146 -255 -189 -421 -196l-7 -1c-12 -18 -71 -38 -94 -38c-12 0 -23 6 -23 20v656c0 9 7 13 15 13c22 0 58 -26 102 -26h291c44 0 83 28 96 28c22 0 50 -89 50 -109c0 -3 -1 -6 -2 -9
c-45 -45 -119 -86 -185 -86c-7 0 -16 0 -23 4c38 17 86 79 86 121c0 9 -10 21 -19 21c-2 0 -3 0 -5 -1h-247c-27 0 -42 -29 -42 -53v-223c91 1 297 -9 369 59c2 2 4 3 7 3c24 0 117 -112 117 -140zM496 278c0 2 -1 5 -2 7h-351v-255c111 0 225 77 296 158c16 18 57 66 57 90
z" />
    <glyph glyph-name="afii10019" unicode="&#x412;" 
d="M637 238c0 -16 -21 -13 -31 -13c-18 0 -26 -17 -34 -30c-63 -109 -249 -193 -371 -195l-58 -1c-12 -18 -71 -38 -94 -38c-12 0 -23 6 -23 20v656c0 9 7 13 15 13c22 0 58 -26 102 -26h325c12 0 14 26 31 26c2 0 6 -2 8 -3c20 -17 103 -91 104 -115l-3 -8
c-13 -8 -38 3 -52 -14c-46 -54 -149 -155 -218 -172l-86 -21c74 0 205 5 261 58c2 2 4 3 7 3c24 0 117 -112 117 -140zM471 583c0 6 -4 10 -10 10h-275c-29 0 -43 -25 -43 -51v-225c142 25 265 125 325 255c2 3 3 7 3 11zM496 279c0 2 -1 5 -2 7h-351v-255
c111 0 225 77 296 158c16 18 57 66 57 90z" />
    <glyph glyph-name="afii10020" unicode="&#x413;" horiz-adv-x="581" 
d="M564 543c0 -3 -1 -6 -2 -9c-45 -45 -119 -86 -185 -86c-7 0 -16 0 -23 4c38 17 86 79 86 121c0 9 -10 21 -19 21c-2 0 -3 0 -5 -1h-273v-484c0 -21 17 -28 17 -37c0 -30 -82 -111 -106 -111c-17 0 -54 27 -54 46c0 20 26 48 26 70v470c0 50 -29 85 -30 97l4 6
c5 3 11 3 17 3c58 0 115 -29 174 -29h227c45 0 82 28 96 28c22 0 50 -89 50 -109z" />
    <glyph glyph-name="afii10021" unicode="&#x414;" horiz-adv-x="850" 
d="M852 -10c0 -76 -77 -171 -158 -171c-3 0 -6 2 -7 5c39 27 67 84 67 131c0 14 -6 45 -25 45h-587c-18 0 -34 -16 -34 -34c0 -43 28 -101 28 -130c0 -6 1 -16 -9 -16c-17 0 -58 104 -73 122c-12 14 -79 62 -79 75c0 27 116 15 136 15c96 68 186 365 186 481
c0 28 -1 55 -1 83c0 9 -3 27 11 27c12 0 32 -11 41 -20l29 -13l-15 39c0 20 14 26 31 26c16 0 68 -36 118 -36c7 0 14 2 21 2c11 0 15 -12 15 -21c0 -3 -2 -8 -3 -10c-13 -13 -28 -33 -28 -52c0 -49 150 -459 181 -507c16 23 46 31 72 31c50 0 83 -20 83 -72zM559 54
c0 12 -6 25 -11 36c-55 128 -102 256 -139 391c-47 -120 -164 -357 -252 -449h373c15 0 29 4 29 22z" />
    <glyph glyph-name="afii10022" unicode="&#x415;" 
d="M637 9c0 -4 -3 -7 -6 -9l-488 -1c-39 0 -88 -39 -104 -39c-11 0 -39 28 -39 39c0 9 26 60 26 112v418c0 49 -30 89 -30 101l4 6c2 2 5 2 8 2c24 0 83 -65 174 -65h189c17 13 90 77 107 77c12 0 87 -79 87 -99c0 -4 -3 -7 -6 -9h-379c-26 0 -37 -32 -37 -54v-171h228
c17 13 90 77 107 77c12 0 87 -79 87 -99c0 -4 -3 -7 -6 -9h-416v-200c0 -25 10 -54 39 -54l261 -1c17 13 90 77 107 77c12 0 87 -79 87 -99z" />
    <glyph glyph-name="afii10024" unicode="&#x416;" horiz-adv-x="907" 
d="M905 140c0 -26 -26 -72 -41 -94c-10 -15 -25 -85 -37 -85c-16 0 -18 17 -29 22c-97 66 -164 180 -231 274c-18 -2 -35 -8 -53 -9v-138c0 -21 17 -28 17 -37c0 -30 -82 -111 -106 -111c-18 0 -54 27 -54 46s26 48 26 70v169c-18 0 -35 8 -53 10
c-67 -94 -139 -208 -235 -274c-11 -4 -14 -22 -28 -22c-12 0 -28 71 -38 85c-15 22 -40 67 -40 94c0 4 1 10 6 10c6 0 37 -19 65 -19c89 0 180 90 231 155c-71 47 -143 94 -201 156c-19 20 -33 42 -51 61c-7 7 -19 4 -27 4s-20 3 -20 12c0 11 14 21 21 27c33 28 58 58 85 91
c6 8 14 17 25 17c21 0 19 -26 19 -39c0 -92 113 -228 178 -290c12 14 63 91 63 106v90c0 55 -26 90 -26 112c0 10 4 20 15 20c23 0 148 -66 148 -88c0 -13 -20 -18 -20 -53v-83c15 -36 40 -69 60 -102c74 64 156 198 159 297c0 11 4 30 19 30c11 0 19 -9 25 -17
c27 -33 52 -63 85 -91c8 -6 20 -16 21 -27l-3 -6c-8 -8 -20 -5 -30 -5c-5 0 -10 -1 -14 -5c-83 -92 -123 -144 -230 -215c50 -65 140 -156 229 -156c28 0 58 18 64 18c5 0 6 -6 6 -10zM539 299c-11 20 -17 44 -25 66l-1 -79c11 0 18 7 26 13zM396 286v78
c-7 -22 -15 -44 -26 -65c8 -6 16 -13 26 -13z" />
    <glyph glyph-name="afii10025" unicode="&#x417;" horiz-adv-x="684" 
d="M667 644c0 -24 -63 -138 -87 -138c-2 0 -2 0 -3 1c-13 10 -25 17 -42 17c-3 0 -9 0 -9 -3c12 -26 34 -21 34 -76c0 -62 -52 -104 -104 -128c116 0 205 -33 205 -165c0 -146 -258 -171 -362 -171c-130 0 -222 61 -289 169c-8 13 -12 29 -12 44c0 13 2 25 16 28
c45 9 91 11 136 21c6 1 13 4 19 4c12 0 22 -11 22 -23c0 -20 -62 -41 -62 -85c0 -6 1 -10 3 -15c32 -77 82 -110 167 -110c84 0 231 55 231 157s-172 115 -246 115c-16 0 -78 -9 -78 15c0 22 42 16 56 16c72 0 251 23 251 127c0 65 -80 85 -131 85c-69 0 -244 -2 -273 -87
c-3 -10 -12 -50 -25 -50c-20 0 -12 36 -12 48c0 60 -32 116 -32 172c0 4 2 9 4 12c2 1 3 2 6 2c9 0 19 -35 25 -35c1 0 2 1 3 2c33 36 91 31 136 31c98 0 174 -39 246 -39c50 0 162 67 201 67c6 0 6 -3 6 -8z" />
    <glyph glyph-name="afii10026" unicode="&#x418;" 
d="M618 564c0 -13 -20 -18 -20 -53v-399c0 -21 17 -28 17 -37c0 -30 -82 -111 -106 -111c-17 0 -54 27 -54 45c0 21 26 48 26 71v358c-56 -108 -214 -299 -338 -324v-4c0 -21 17 -28 17 -37c0 -30 -82 -111 -106 -111c-17 0 -54 27 -54 45c0 21 26 48 26 71v441
c0 55 -26 90 -26 112c0 10 4 20 15 20c23 0 148 -66 148 -88c0 -13 -20 -18 -20 -53v-373c158 89 181 160 229 327c13 45 17 110 35 151c2 4 6 6 10 6c30 0 49 -80 64 -101c0 55 -26 90 -26 112c0 10 4 20 15 20c23 0 148 -66 148 -88z" />
    <glyph glyph-name="afii10027" unicode="&#x419;" 
d="M389 697c-18 -26 -125 -52 -160 -52c-10 0 -38 -1 -38 14c0 13 37 81 46 81c14 0 47 -42 107 -42c12 0 23 3 35 3c3 0 10 0 10 -4zM618 563c0 -13 -20 -17 -20 -53v-399c0 -21 17 -28 17 -37c0 -29 -82 -111 -106 -111c-17 0 -54 27 -54 45c0 21 26 48 26 71v358
c-56 -108 -214 -299 -338 -324v-4c0 -21 17 -28 17 -37c0 -29 -82 -111 -106 -111c-17 0 -54 27 -54 45c0 21 26 48 26 71v441c0 56 -26 89 -26 112c0 10 4 20 15 20c23 0 148 -66 148 -88c0 -13 -20 -17 -20 -53v-373c136 77 198 205 235 351c10 41 16 87 29 127
c1 4 6 6 10 6c30 0 49 -80 64 -101c0 56 -26 89 -26 112c0 10 4 20 15 20c23 0 148 -66 148 -88z" />
    <glyph glyph-name="afii10028" unicode="&#x41a;" horiz-adv-x="630" 
d="M618 150c0 -27 -33 -74 -50 -94c-13 -16 -31 -85 -46 -85c-16 0 -22 15 -35 22c-116 63 -203 167 -289 264c-19 -2 -36 -9 -55 -10v-138c0 -21 17 -28 17 -37c0 -30 -82 -111 -106 -111c-18 0 -54 27 -54 46s26 48 26 70v442c0 55 -26 90 -26 112c0 10 4 20 15 20
c23 0 148 -66 148 -88c0 -13 -20 -17 -20 -53v-81c17 -34 41 -77 68 -104c73 56 219 204 219 299c0 11 5 30 19 30c11 0 19 -10 25 -17c27 -33 52 -63 85 -91c8 -6 20 -16 21 -27l-3 -6c-8 -8 -19 -5 -29 -5c-6 0 -11 -1 -15 -5c-100 -96 -162 -150 -286 -217
c69 -72 174 -146 277 -146c34 0 72 19 87 19c5 0 7 -4 7 -9zM175 299c-13 20 -23 43 -32 65v-78c12 0 22 6 32 13z" />
    <glyph glyph-name="afii10029" unicode="&#x41b;" horiz-adv-x="727" 
d="M683 129c0 -29 -84 -165 -106 -165c-57 0 -230 451 -255 517c-66 -162 -192 -398 -333 -507c-7 -5 -15 -10 -24 -10c-5 0 -10 2 -10 8c0 9 9 18 14 24c119 133 225 353 225 535c0 24 -1 49 -1 73c0 9 -3 27 11 27c27 0 57 -40 94 -46l-15 39c0 20 14 26 31 26
c16 0 68 -36 118 -36c7 0 14 2 21 2c11 0 15 -12 15 -21c0 -3 -2 -8 -3 -10c-13 -13 -28 -33 -28 -52c0 -4 1 -9 2 -13c39 -106 78 -215 125 -317c5 -13 37 -87 58 -78c6 -1 12 -3 18 -3c11 0 20 14 34 14c4 0 9 -3 9 -7z" />
    <glyph glyph-name="afii10030" unicode="&#x41c;" horiz-adv-x="987" 
d="M985 -33c0 -2 -1 -5 -4 -5c-4 0 -13 7 -15 9c-140 135 -235 338 -287 523c-55 -101 -107 -211 -185 -297c7 -19 24 -75 47 -75c13 0 21 14 36 14c6 0 8 -5 8 -10c0 -27 -85 -162 -105 -162c-66 0 -143 316 -156 374c-28 -137 -113 -249 -204 -351c-5 -6 -16 -25 -25 -25
c-5 0 -95 124 -95 140c0 9 6 14 14 14c15 0 30 -8 46 -8c114 0 222 183 252 278c-19 80 -27 166 -62 241c0 20 14 26 31 26c16 0 68 -36 118 -36c7 0 14 2 21 2c11 0 15 -12 15 -21c0 -3 -2 -8 -3 -10c-13 -13 -28 -33 -28 -52c0 -77 47 -234 78 -304
c85 109 105 250 105 385c0 9 -3 27 11 27c13 0 32 -11 41 -20c8 8 4 19 4 29c0 6 4 10 10 10c29 0 106 -46 130 -65c16 -13 13 -35 13 -53c0 -204 87 -384 182 -558c3 -6 7 -13 7 -20z" />
    <glyph glyph-name="afii10031" unicode="&#x41d;" horiz-adv-x="653" 
d="M619 561c0 -13 -20 -17 -20 -53v-399c0 -20 17 -29 17 -37c0 -30 -82 -111 -106 -111c-18 0 -54 27 -54 46s26 48 26 70v209h-338v-177c0 -20 17 -29 17 -37c0 -30 -82 -111 -106 -111c-18 0 -54 27 -54 46s26 48 26 70v446c0 52 -26 85 -26 108c0 10 4 20 15 20
c23 0 148 -66 148 -88c0 -13 -20 -17 -20 -53v-193h87c15 14 66 71 84 71c15 0 67 -58 80 -71h87v204c0 52 -26 85 -26 108c0 10 4 20 15 20c23 0 148 -66 148 -88z" />
    <glyph glyph-name="afii10032" unicode="&#x41e;" 
d="M595 317c0 -161 -109 -336 -285 -336s-284 175 -284 336c0 50 10 92 29 138c70 28 113 98 150 160c33 14 69 22 105 22c65 0 106 -36 160 -36c20 0 40 5 60 5c2 -1 4 -3 4 -6c0 -13 -26 -30 -26 -48c0 -4 3 -9 5 -12c55 -68 82 -133 82 -223zM478 317
c0 95 -43 289 -168 289c-124 0 -167 -195 -167 -289c0 -95 39 -305 167 -305c127 0 168 211 168 305z" />
    <glyph glyph-name="afii10033" unicode="&#x41f;" horiz-adv-x="651" 
d="M618 561c0 -13 -20 -18 -20 -53v-399c0 -21 17 -28 17 -37c0 -30 -82 -111 -106 -111c-16 0 -54 27 -54 44c0 23 26 49 26 72v515h-305c-23 0 -33 -22 -33 -42v-441c0 -21 17 -28 17 -37c0 -30 -82 -111 -106 -111c-16 0 -54 27 -54 44c0 23 26 49 26 72v470
c0 50 -29 86 -30 97l4 6c5 3 11 3 17 3c58 0 115 -29 174 -29h274c-2 5 -6 8 -7 12c4 6 9 16 18 16c23 0 142 -70 142 -91z" />
    <glyph glyph-name="afii10034" unicode="&#x420;" 
d="M630 532l-3 -8c-13 -8 -38 3 -52 -14c-38 -208 -235 -323 -432 -346v-55c0 -21 17 -28 17 -37c0 -29 -82 -111 -106 -111c-18 0 -54 27 -54 46s26 48 26 70v470c0 51 -29 84 -30 97l4 6c5 3 11 3 17 3c58 0 115 -29 174 -29h296c12 0 14 26 31 26c2 0 6 -2 8 -3
c20 -18 103 -91 104 -115zM466 561c0 36 -36 31 -62 31h-230c-20 0 -31 -17 -31 -35v-361c127 11 323 241 323 365z" />
    <glyph glyph-name="afii10035" unicode="&#x421;" horiz-adv-x="700" 
d="M663 78c0 -78 -246 -101 -298 -101c-49 0 -100 4 -145 23c-141 58 -219 123 -219 286c0 101 81 175 159 226c2 1 8 5 8 8c0 4 -7 4 -9 4c-23 0 -44 -18 -45 -18c-23 0 -87 114 -87 137c0 6 0 9 6 9c39 0 151 -67 201 -67c72 0 148 39 246 39c45 0 103 5 136 -31
c1 -1 2 -2 3 -2c6 0 16 35 25 35c8 0 10 -7 10 -14c0 -56 -32 -112 -32 -172c0 -8 2 -16 2 -24c0 -9 -2 -24 -14 -24c-13 0 -22 40 -25 50c-25 74 -170 79 -231 79c-14 0 -28 0 -42 -1c-117 -6 -275 -125 -275 -250c0 -140 151 -214 272 -214c93 0 197 37 254 113
c26 35 18 126 40 127c7 -3 7 -11 7 -18c0 -21 -4 -42 -4 -63c0 -92 57 -53 57 -137z" />
    <glyph glyph-name="afii10036" unicode="&#x422;" horiz-adv-x="727" 
d="M704 583c0 -76 -77 -171 -158 -171c-3 0 -6 2 -7 5c39 27 67 84 67 131c0 14 -6 45 -25 45h-131c-25 0 -33 -13 -33 -37v-447c0 -21 17 -28 17 -37c0 -30 -82 -111 -106 -111c-17 0 -54 27 -54 45c0 21 26 48 26 71v482c0 11 1 34 -15 34h-111c-13 0 -37 -72 -45 -85
c-16 -26 -92 -119 -122 -119c-2 0 -4 1 -6 2c-3 3 -3 7 -3 11c0 35 29 83 29 143c0 46 -17 80 -17 90c0 11 8 16 17 16c21 0 57 -27 91 -27h156c-2 4 -3 9 -3 13c0 12 12 14 21 14c36 0 83 -27 107 -27h150c16 23 46 31 72 31c50 0 83 -20 83 -72z" />
    <glyph glyph-name="afii10037" unicode="&#x423;" horiz-adv-x="643" 
d="M632 519l-3 -6c-8 -8 -19 -5 -29 -5c-11 0 -16 -4 -21 -14c-12 -24 -22 -51 -34 -75c-51 -105 -118 -206 -207 -282c-90 -77 -202 -155 -318 -182l-7 -1c-6 0 -13 2 -13 9c0 14 23 22 32 26c93 46 185 124 249 205c-103 63 -195 259 -234 366c-6 18 -41 67 -41 77
c0 7 1 14 9 14c49 0 97 -10 146 -10c23 0 14 -50 14 -65c0 -110 39 -281 131 -353c81 102 162 273 176 401c1 12 2 30 19 30c11 0 19 -10 25 -17c28 -33 52 -63 85 -91c8 -7 19 -15 21 -27z" />
    <glyph glyph-name="afii10038" unicode="&#x424;" horiz-adv-x="914" 
d="M904 509l-3 -8c-12 -8 -24 1 -37 -15c-37 -204 -163 -302 -364 -325v-52c0 -21 17 -28 17 -37c0 -30 -82 -111 -106 -111c-18 0 -54 27 -54 46s26 48 26 70v84c-192 22 -299 130 -340 316c-10 13 -45 24 -45 36c0 31 83 82 109 82c18 0 16 -10 29 -10h234c4 3 6 8 6 13
c0 20 -24 40 -24 55c0 7 30 7 34 7c22 0 139 -10 139 -40c0 -12 -13 -20 -14 -30c1 -4 7 -5 10 -5h216c4 0 11 0 11 6c0 13 -36 38 -36 48c0 5 7 7 11 7c2 0 8 -2 10 -3c30 -24 131 -36 158 -103c7 -8 13 -20 13 -31zM751 516c0 42 -28 37 -62 37h-158
c-20 0 -31 -16 -31 -35v-325c130 11 251 201 251 323zM383 193v325c0 19 -11 35 -31 35h-152c-35 0 -62 5 -62 -38c0 -121 114 -311 245 -322z" />
    <glyph glyph-name="afii10039" unicode="&#x425;" horiz-adv-x="619" 
d="M605 519l-3 -6c-7 -8 -19 -5 -29 -5c-36 0 -177 -192 -201 -222c13 -19 113 -155 128 -155c18 0 34 41 50 41c8 0 14 -4 14 -12c0 -10 -16 -44 -19 -57c-9 -34 -11 -71 -11 -106v-10c0 -17 -18 -29 -33 -29c-34 0 -186 208 -209 240c-44 -44 -233 -238 -284 -238
c-7 0 -15 4 -15 12c0 17 23 29 34 38c79 62 160 171 213 256c-27 41 -225 332 -225 358c0 23 18 34 39 34c34 0 68 -12 103 -12c21 0 37 13 54 13c6 0 8 -4 8 -9c0 -28 -44 -36 -44 -63c0 -24 115 -188 137 -221c20 33 142 231 143 258c1 12 2 30 19 30c11 0 19 -9 25 -17
c27 -33 52 -63 85 -91c8 -6 20 -16 21 -27z" />
    <glyph glyph-name="afii10040" unicode="&#x426;" horiz-adv-x="672" 
d="M662 -10c0 -76 -77 -171 -158 -171c-3 0 -6 2 -7 5c39 27 67 84 67 131c0 44 -17 45 -55 45c-13 0 -62 -40 -94 -40c-23 0 -28 21 -28 40h-244c-39 0 -88 -39 -104 -39c-11 0 -39 28 -39 39c0 9 26 60 26 112v406c0 55 -26 90 -26 112c0 10 4 20 15 20
c23 0 148 -66 148 -88c0 -13 -20 -18 -20 -53v-442c0 -17 6 -35 26 -35h221v485c0 55 -26 90 -26 112c0 10 4 20 15 20c23 0 148 -66 148 -88c0 -13 -20 -18 -20 -53v-477c16 23 46 31 72 31c50 0 83 -20 83 -72z" />
    <glyph glyph-name="afii10041" unicode="&#x427;" horiz-adv-x="635" 
d="M581 563c0 -13 -20 -18 -20 -53v-403c0 -21 17 -28 17 -37c0 -30 -82 -111 -106 -111c-17 0 -54 27 -54 45c0 21 26 48 26 71v275c-88 -107 -157 -146 -292 -176c-11 -2 -5 -44 -27 -44c-25 0 -124 89 -124 112c0 32 26 23 26 44v233c0 55 -26 90 -26 112
c0 10 4 20 15 20c23 0 148 -66 148 -88c0 -13 -20 -18 -20 -53v-224c133 0 209 14 300 114v119c0 55 -26 90 -26 112c0 10 4 20 15 20c23 0 148 -66 148 -88z" />
    <glyph glyph-name="afii10042" unicode="&#x428;" horiz-adv-x="766" 
d="M739 56c0 -26 -79 -94 -110 -94c-22 0 -28 20 -28 38h-165c-13 0 -62 -40 -94 -40c-23 0 -28 21 -28 40h-171c-39 0 -88 -39 -104 -39c-11 0 -39 28 -39 39c0 9 26 60 26 112v407c0 55 -26 90 -26 112c0 10 4 20 15 20c23 0 148 -66 148 -88c0 -13 -20 -17 -20 -53v-447
c0 -17 13 -31 30 -31h140v487c0 55 -26 90 -26 112c0 10 4 20 15 20c23 0 148 -66 148 -88c0 -13 -20 -17 -20 -53v-445c0 -15 12 -33 28 -33h143v489c0 55 -26 90 -26 112c0 10 4 20 15 20c23 0 148 -66 148 -88c0 -13 -20 -17 -20 -53v-434h3c11 1 18 -13 18 -22z" />
    <glyph glyph-name="afii10043" unicode="&#x429;" horiz-adv-x="880" 
d="M873 -10c0 -76 -77 -171 -158 -171c-3 0 -6 2 -7 5c37 26 63 80 63 124c0 26 -11 52 -41 52h-294c-13 0 -62 -40 -94 -40c-23 0 -28 21 -28 40h-171c-39 0 -88 -39 -104 -39c-11 0 -39 28 -39 39c0 9 26 60 26 112v407c0 55 -26 90 -26 112c0 10 4 20 15 20
c23 0 148 -66 148 -88c0 -13 -20 -17 -20 -53v-447c0 -17 13 -31 30 -31h140v487c0 55 -26 90 -26 112c0 10 4 20 15 20c23 0 148 -66 148 -88c0 -13 -20 -17 -20 -53v-445c0 -15 12 -33 28 -33h143v489c0 55 -26 90 -26 112c0 10 4 20 15 20c23 0 148 -66 148 -88
c0 -13 -20 -17 -20 -53v-481c16 23 46 31 72 31c50 0 83 -20 83 -72z" />
    <glyph glyph-name="afii10044" unicode="&#x42a;" horiz-adv-x="731" 
d="M715 361c0 -16 -33 -22 -36 -44c-20 -169 -217 -308 -379 -318c-12 -18 -71 -38 -94 -38c-12 0 -23 6 -23 20v570c0 15 -3 42 -23 42c-40 0 -47 -72 -47 -100c0 -52 12 -104 35 -150c-89 21 -146 164 -146 247c0 18 3 54 29 54c18 0 37 -19 70 -19c29 0 57 11 82 24
c25 -10 133 -43 133 -74c0 -16 -16 -34 -16 -55v-154h413c1 -2 2 -3 2 -5zM545 292c0 31 -22 42 -50 42h-155c-28 0 -40 -23 -40 -48v-255c87 3 245 176 245 261z" />
    <glyph glyph-name="afii10045" unicode="&#x42b;" horiz-adv-x="784" 
d="M750 562c0 -13 -20 -17 -20 -53v-404c0 -20 17 -29 17 -37c0 -30 -82 -111 -106 -111c-18 0 -54 27 -54 47c0 17 26 47 26 69v449c0 51 -26 85 -26 108c0 10 4 20 15 20c23 0 148 -66 148 -88zM558 362c0 -18 -34 -22 -36 -45c-16 -168 -220 -308 -379 -318
c-12 -18 -71 -38 -94 -38c-12 0 -23 6 -23 20v539c0 55 -26 90 -26 112c0 10 4 20 15 20c23 0 148 -66 148 -88c0 -13 -20 -17 -20 -53v-145h413c1 -1 2 -2 2 -4zM388 291c0 31 -22 42 -50 42h-155c-28 0 -40 -23 -40 -48v-255c87 3 245 176 245 261z" />
    <glyph glyph-name="afii10046" unicode="&#x42c;" horiz-adv-x="584" 
d="M558 362c0 -18 -34 -22 -36 -45c-16 -168 -220 -308 -379 -318c-12 -18 -71 -38 -94 -38c-12 0 -23 6 -23 20v539c0 55 -26 90 -26 112c0 10 4 20 15 20c23 0 148 -66 148 -88c0 -13 -20 -17 -20 -53v-145h413c1 -1 2 -2 2 -4zM388 291c0 31 -22 42 -50 42h-155
c-28 0 -40 -23 -40 -48v-255c87 3 245 176 245 261z" />
    <glyph glyph-name="afii10047" unicode="&#x42d;" horiz-adv-x="681" 
d="M722 338c0 -18 -52 -22 -65 -24c1 -9 2 -19 2 -28c0 -163 -78 -228 -219 -286c-45 -19 -97 -23 -145 -23c-52 0 -298 23 -298 101c0 84 57 44 57 137c0 21 -4 42 -4 63c0 6 -1 18 7 18c22 0 14 -92 40 -127c58 -77 161 -113 255 -113c124 0 272 75 272 217
c0 12 -2 24 -5 36c-89 -12 -182 -23 -272 -23c-20 0 -43 -18 -60 -18c-16 0 -24 85 -24 100c0 13 3 78 19 78c11 0 27 -24 33 -33c40 -59 195 -72 259 -71l32 1c-54 116 -177 178 -301 178c-61 0 -205 -5 -230 -79c-3 -10 -12 -50 -25 -50c-20 0 -12 36 -12 48
c0 60 -32 116 -32 172c0 4 2 9 4 12c2 1 3 2 5 2c11 0 19 -35 26 -35c2 0 2 1 3 2c31 36 92 31 136 31c98 0 174 -39 246 -39c51 0 160 67 202 67c4 0 5 -3 5 -7c0 -23 -64 -139 -85 -139c-6 0 -22 18 -47 18c-3 0 -9 0 -9 -4c7 -15 119 -67 157 -174c14 1 28 4 42 4
c7 0 31 0 31 -12z" />
    <glyph glyph-name="afii10048" unicode="&#x42e;" horiz-adv-x="807" 
d="M768 317c0 -161 -109 -336 -285 -336c-158 0 -283 153 -283 305h-57v-178c0 -21 17 -28 17 -37c0 -29 -82 -111 -106 -111c-18 0 -54 27 -54 46s26 48 26 70v445c0 56 -26 89 -26 112c0 10 4 20 15 20c23 0 148 -66 148 -88c0 -13 -20 -17 -20 -53v-195h57v14
c-1 55 8 75 28 124c70 28 113 98 150 160c33 14 69 22 105 22c65 0 106 -36 160 -36c20 0 40 5 60 5c2 -1 4 -3 4 -6c0 -13 -26 -30 -26 -48c0 -4 3 -9 5 -12c55 -70 82 -132 82 -223zM651 318c0 95 -43 289 -168 289c-123 0 -166 -197 -166 -290c0 -94 38 -304 166 -304
c127 0 168 211 168 305z" />
    <glyph glyph-name="afii10049" unicode="&#x42f;" horiz-adv-x="725" 
d="M691 600c0 -13 -20 -17 -20 -53v-437c0 -21 17 -28 17 -37c0 -29 -82 -111 -106 -111c-18 0 -54 27 -54 46s26 48 26 70v86c-45 5 -88 9 -130 26c-83 -119 -284 -211 -426 -226c108 46 269 171 327 275c-94 49 -184 166 -203 271c-16 19 -55 2 -55 22s101 118 112 118
c17 0 19 -26 31 -26h344c-2 15 -16 26 -16 43c0 8 6 20 15 20c29 0 104 -64 136 -79c2 -2 2 -5 2 -8zM554 196v361c0 19 -11 35 -31 35h-236c-17 0 -55 2 -55 -24c0 -68 75 -191 120 -239c3 9 4 19 4 29c0 15 -5 30 -5 44c0 6 3 9 9 9c4 0 8 -1 12 -2c12 -3 43 -44 55 -55
c20 -19 81 -48 81 -77c0 -16 -40 -8 -54 -38c32 -24 59 -43 100 -43z" />
    <glyph glyph-name="afii10065" unicode="&#x430;" horiz-adv-x="683" 
d="M682 -32c0 -2 0 -6 -3 -6c-38 19 -156 210 -173 255h-252c-40 -68 -98 -222 -170 -255c-18 18 -86 99 -87 122c1 4 5 7 9 8c72 19 118 68 164 125c-14 0 -50 -6 -50 15c0 25 58 16 74 16c49 60 142 257 169 332c-4 14 -19 58 -19 71c0 1 2 1 5 1c18 0 123 -20 138 -27v-4
c0 -9 -13 -28 -13 -48c0 -29 78 -282 93 -325c17 0 79 10 79 -16c0 -24 -52 -15 -68 -15c23 -67 49 -132 83 -194c7 -14 21 -39 21 -55zM488 248c-33 66 -100 214 -112 285c-25 -96 -72 -194 -112 -285h43c13 12 54 60 70 60c15 0 56 -48 68 -60h43z" />
    <glyph glyph-name="afii10066" unicode="&#x431;" 
d="M636 239c0 -16 -21 -13 -32 -13c-18 0 -24 -17 -33 -30c-97 -146 -255 -189 -421 -196l-7 -1c-12 -18 -71 -38 -94 -38c-12 0 -23 6 -23 20v656c0 9 7 13 15 13c22 0 58 -26 102 -26h291c44 0 83 28 96 28c22 0 50 -89 50 -109c0 -3 -1 -6 -2 -9
c-45 -45 -119 -86 -185 -86c-7 0 -16 0 -23 4c38 17 86 79 86 121c0 9 -10 21 -19 21c-2 0 -3 0 -5 -1h-247c-27 0 -42 -29 -42 -53v-223c91 1 297 -9 369 59c2 2 4 3 7 3c24 0 117 -112 117 -140zM496 278c0 2 -1 5 -2 7h-351v-255c111 0 225 77 296 158c16 18 57 66 57 90
z" />
    <glyph glyph-name="afii10067" unicode="&#x432;" 
d="M637 238c0 -16 -21 -13 -31 -13c-18 0 -26 -17 -34 -30c-63 -109 -249 -193 -371 -195l-58 -1c-12 -18 -71 -38 -94 -38c-12 0 -23 6 -23 20v656c0 9 7 13 15 13c22 0 58 -26 102 -26h325c12 0 14 26 31 26c2 0 6 -2 8 -3c20 -17 103 -91 104 -115l-3 -8
c-13 -8 -38 3 -52 -14c-46 -54 -149 -155 -218 -172l-86 -21c74 0 205 5 261 58c2 2 4 3 7 3c24 0 117 -112 117 -140zM471 583c0 6 -4 10 -10 10h-275c-29 0 -43 -25 -43 -51v-225c142 25 265 125 325 255c2 3 3 7 3 11zM496 279c0 2 -1 5 -2 7h-351v-255
c111 0 225 77 296 158c16 18 57 66 57 90z" />
    <glyph glyph-name="afii10068" unicode="&#x433;" horiz-adv-x="581" 
d="M564 543c0 -3 -1 -6 -2 -9c-45 -45 -119 -86 -185 -86c-7 0 -16 0 -23 4c38 17 86 79 86 121c0 9 -10 21 -19 21c-2 0 -3 0 -5 -1h-273v-484c0 -21 17 -28 17 -37c0 -30 -82 -111 -106 -111c-17 0 -54 27 -54 46c0 20 26 48 26 70v470c0 50 -29 85 -30 97l4 6
c5 3 11 3 17 3c58 0 115 -29 174 -29h227c45 0 82 28 96 28c22 0 50 -89 50 -109z" />
    <glyph glyph-name="afii10069" unicode="&#x434;" horiz-adv-x="850" 
d="M852 -10c0 -76 -77 -171 -158 -171c-3 0 -6 2 -7 5c39 27 67 84 67 131c0 14 -6 45 -25 45h-547c-12 -12 -72 -76 -85 -76c-15 0 -97 80 -97 92c0 27 93 16 111 16c96 68 186 365 186 481c0 28 -1 55 -1 83c0 9 -3 27 11 27c12 0 32 -11 41 -20l29 -13l-15 39
c0 20 14 26 31 26c16 0 68 -36 118 -36c7 0 14 2 21 2c11 0 15 -12 15 -21c0 -3 -2 -8 -3 -10c-13 -13 -28 -33 -28 -52c0 -49 150 -459 181 -507c16 23 46 31 72 31c50 0 83 -20 83 -72zM559 54c0 12 -6 25 -11 36c-55 128 -102 256 -139 391c-47 -120 -164 -357 -252 -449
h373c15 0 29 4 29 22z" />
    <glyph glyph-name="afii10070" unicode="&#x435;" 
d="M637 9c0 -4 -3 -7 -6 -9l-488 -1c-39 0 -88 -39 -104 -39c-11 0 -39 28 -39 39c0 9 26 60 26 112v418c0 49 -30 89 -30 101l4 6c2 2 5 2 8 2c24 0 83 -65 174 -65h189c17 13 90 77 107 77c12 0 87 -79 87 -99c0 -4 -3 -7 -6 -9h-379c-26 0 -37 -32 -37 -54v-171h228
c17 13 90 77 107 77c12 0 87 -79 87 -99c0 -4 -3 -7 -6 -9h-416v-200c0 -25 10 -54 39 -54l261 -1c17 13 90 77 107 77c12 0 87 -79 87 -99z" />
    <glyph glyph-name="afii10072" unicode="&#x436;" horiz-adv-x="907" 
d="M905 140c0 -26 -26 -72 -41 -94c-10 -15 -25 -85 -37 -85c-16 0 -18 17 -29 22c-97 66 -164 180 -231 274c-18 -2 -35 -8 -53 -9v-138c0 -21 17 -28 17 -37c0 -30 -82 -111 -106 -111c-18 0 -54 27 -54 46s26 48 26 70v169c-18 0 -35 8 -53 10
c-67 -94 -139 -208 -235 -274c-11 -4 -14 -22 -28 -22c-12 0 -28 71 -38 85c-15 22 -40 67 -40 94c0 4 1 10 6 10c6 0 37 -19 65 -19c89 0 180 90 231 155c-71 47 -143 94 -201 156c-19 20 -33 42 -51 61c-7 7 -19 4 -27 4s-20 3 -20 12c0 11 14 21 21 27c33 28 58 58 85 91
c6 8 14 17 25 17c21 0 19 -26 19 -39c0 -92 113 -228 178 -290c12 14 63 91 63 106v90c0 55 -26 90 -26 112c0 10 4 20 15 20c23 0 148 -66 148 -88c0 -13 -20 -18 -20 -53v-83c15 -36 40 -69 60 -102c74 64 156 198 159 297c0 11 4 30 19 30c11 0 19 -9 25 -17
c27 -33 52 -63 85 -91c8 -6 20 -16 21 -27l-3 -6c-8 -8 -20 -5 -30 -5c-5 0 -10 -1 -14 -5c-83 -92 -123 -144 -230 -215c50 -65 140 -156 229 -156c28 0 58 18 64 18c5 0 6 -6 6 -10zM539 299c-11 20 -17 44 -25 66l-1 -79c11 0 18 7 26 13zM396 286v78
c-7 -22 -15 -44 -26 -65c8 -6 16 -13 26 -13z" />
    <glyph glyph-name="afii10073" unicode="&#x437;" horiz-adv-x="684" 
d="M667 644c0 -24 -63 -138 -87 -138c-2 0 -2 0 -3 1c-13 10 -25 17 -42 17c-3 0 -9 0 -9 -3c12 -26 34 -21 34 -76c0 -62 -52 -104 -104 -128c116 0 205 -33 205 -165c0 -146 -258 -171 -362 -171c-130 0 -222 61 -289 169c-8 13 -12 29 -12 44c0 13 2 25 16 28
c45 9 91 11 136 21c6 1 13 4 19 4c12 0 22 -11 22 -23c0 -20 -62 -41 -62 -85c0 -6 1 -10 3 -15c32 -77 82 -110 167 -110c84 0 231 55 231 157s-172 115 -246 115c-16 0 -78 -9 -78 15c0 22 42 16 56 16c72 0 251 23 251 127c0 65 -80 85 -131 85c-69 0 -244 -2 -273 -87
c-3 -10 -12 -50 -25 -50c-20 0 -12 36 -12 48c0 60 -32 116 -32 172c0 4 2 9 4 12c2 1 3 2 6 2c9 0 19 -35 25 -35c1 0 2 1 3 2c33 36 91 31 136 31c98 0 174 -39 246 -39c50 0 162 67 201 67c6 0 6 -3 6 -8z" />
    <glyph glyph-name="afii10074" unicode="&#x438;" 
d="M618 564c0 -13 -20 -18 -20 -53v-399c0 -21 17 -28 17 -37c0 -30 -82 -111 -106 -111c-17 0 -54 27 -54 45c0 21 26 48 26 71v358c-56 -108 -214 -299 -338 -324v-4c0 -21 17 -28 17 -37c0 -30 -82 -111 -106 -111c-17 0 -54 27 -54 45c0 21 26 48 26 71v441
c0 55 -26 90 -26 112c0 10 4 20 15 20c23 0 148 -66 148 -88c0 -13 -20 -18 -20 -53v-373c158 89 181 160 229 327c13 45 17 110 35 151c2 4 6 6 10 6c30 0 49 -80 64 -101c0 55 -26 90 -26 112c0 10 4 20 15 20c23 0 148 -66 148 -88z" />
    <glyph glyph-name="afii10075" unicode="&#x439;" 
d="M389 697c-18 -26 -125 -52 -160 -52c-10 0 -38 -1 -38 14c0 13 37 81 46 81c14 0 47 -42 107 -42c12 0 23 3 35 3c3 0 10 0 10 -4zM618 563c0 -13 -20 -17 -20 -53v-399c0 -21 17 -28 17 -37c0 -29 -82 -111 -106 -111c-17 0 -54 27 -54 45c0 21 26 48 26 71v358
c-56 -108 -214 -299 -338 -324v-4c0 -21 17 -28 17 -37c0 -29 -82 -111 -106 -111c-17 0 -54 27 -54 45c0 21 26 48 26 71v441c0 56 -26 89 -26 112c0 10 4 20 15 20c23 0 148 -66 148 -88c0 -13 -20 -17 -20 -53v-373c136 77 198 205 235 351c10 41 16 87 29 127
c1 4 6 6 10 6c30 0 49 -80 64 -101c0 56 -26 89 -26 112c0 10 4 20 15 20c23 0 148 -66 148 -88z" />
    <glyph glyph-name="afii10076" unicode="&#x43a;" horiz-adv-x="630" 
d="M618 150c0 -27 -33 -74 -50 -94c-13 -16 -31 -85 -46 -85c-16 0 -22 15 -35 22c-116 63 -203 167 -289 264c-19 -2 -36 -9 -55 -10v-138c0 -21 17 -28 17 -37c0 -30 -82 -111 -106 -111c-18 0 -54 27 -54 46s26 48 26 70v442c0 55 -26 90 -26 112c0 10 4 20 15 20
c23 0 148 -66 148 -88c0 -13 -20 -17 -20 -53v-81c17 -34 41 -77 68 -104c73 56 219 204 219 299c0 11 5 30 19 30c11 0 19 -10 25 -17c27 -33 52 -63 85 -91c8 -6 20 -16 21 -27l-3 -6c-8 -8 -19 -5 -29 -5c-6 0 -11 -1 -15 -5c-100 -96 -162 -150 -286 -217
c69 -72 174 -146 277 -146c34 0 72 19 87 19c5 0 7 -4 7 -9zM175 299c-13 20 -23 43 -32 65v-78c12 0 22 6 32 13z" />
    <glyph glyph-name="afii10077" unicode="&#x43b;" horiz-adv-x="727" 
d="M683 129c0 -29 -84 -165 -106 -165c-57 0 -230 451 -255 517c-66 -162 -192 -398 -333 -507c-7 -5 -15 -10 -24 -10c-5 0 -10 2 -10 8c0 9 9 18 14 24c119 133 225 353 225 535c0 24 -1 49 -1 73c0 9 -3 27 11 27c27 0 57 -40 94 -46l-15 39c0 20 14 26 31 26
c16 0 68 -36 118 -36c7 0 14 2 21 2c11 0 15 -12 15 -21c0 -3 -2 -8 -3 -10c-13 -13 -28 -33 -28 -52c0 -4 1 -9 2 -13c39 -106 78 -215 125 -317c5 -13 37 -87 58 -78c6 -1 12 -3 18 -3c11 0 20 14 34 14c4 0 9 -3 9 -7z" />
    <glyph glyph-name="afii10078" unicode="&#x43c;" horiz-adv-x="987" 
d="M985 -33c0 -2 -1 -5 -4 -5c-4 0 -13 7 -15 9c-140 135 -235 338 -287 523c-55 -101 -107 -211 -185 -297c7 -19 24 -75 47 -75c13 0 21 14 36 14c6 0 8 -5 8 -10c0 -27 -85 -162 -105 -162c-66 0 -143 316 -156 374c-28 -137 -113 -249 -204 -351c-5 -6 -16 -25 -25 -25
c-5 0 -95 124 -95 140c0 9 6 14 14 14c15 0 30 -8 46 -8c114 0 222 183 252 278c-19 80 -27 166 -62 241c0 20 14 26 31 26c16 0 68 -36 118 -36c7 0 14 2 21 2c11 0 15 -12 15 -21c0 -3 -2 -8 -3 -10c-13 -13 -28 -33 -28 -52c0 -77 47 -234 78 -304
c85 109 105 250 105 385c0 9 -3 27 11 27c13 0 32 -11 41 -20c8 8 4 19 4 29c0 6 4 10 10 10c29 0 106 -46 130 -65c16 -13 13 -35 13 -53c0 -204 87 -384 182 -558c3 -6 7 -13 7 -20z" />
    <glyph glyph-name="afii10079" unicode="&#x43d;" horiz-adv-x="653" 
d="M619 561c0 -13 -20 -17 -20 -53v-399c0 -20 17 -29 17 -37c0 -30 -82 -111 -106 -111c-18 0 -54 27 -54 46s26 48 26 70v209h-338v-177c0 -20 17 -29 17 -37c0 -30 -82 -111 -106 -111c-18 0 -54 27 -54 46s26 48 26 70v446c0 52 -26 85 -26 108c0 10 4 20 15 20
c23 0 148 -66 148 -88c0 -13 -20 -17 -20 -53v-193h87c15 14 66 71 84 71c15 0 67 -58 80 -71h87v204c0 52 -26 85 -26 108c0 10 4 20 15 20c23 0 148 -66 148 -88z" />
    <glyph glyph-name="afii10080" unicode="&#x43e;" 
d="M595 317c0 -161 -109 -336 -285 -336s-284 175 -284 336c0 50 10 92 29 138c70 28 113 98 150 160c33 14 69 22 105 22c65 0 106 -36 160 -36c20 0 40 5 60 5c2 -1 4 -3 4 -6c0 -13 -26 -30 -26 -48c0 -4 3 -9 5 -12c55 -68 82 -133 82 -223zM478 317
c0 95 -43 289 -168 289c-124 0 -167 -195 -167 -289c0 -95 39 -305 167 -305c127 0 168 211 168 305z" />
    <glyph glyph-name="afii10081" unicode="&#x43f;" horiz-adv-x="651" 
d="M618 561c0 -13 -20 -18 -20 -53v-399c0 -21 17 -28 17 -37c0 -30 -82 -111 -106 -111c-16 0 -54 27 -54 44c0 23 26 49 26 72v515h-305c-23 0 -33 -22 -33 -42v-441c0 -21 17 -28 17 -37c0 -30 -82 -111 -106 -111c-16 0 -54 27 -54 44c0 23 26 49 26 72v470
c0 50 -29 86 -30 97l4 6c5 3 11 3 17 3c58 0 115 -29 174 -29h274c-2 5 -6 8 -7 12c4 6 9 16 18 16c23 0 142 -70 142 -91z" />
    <glyph glyph-name="afii10082" unicode="&#x440;" 
d="M630 532l-3 -8c-13 -8 -38 3 -52 -14c-38 -208 -235 -323 -432 -346v-55c0 -21 17 -28 17 -37c0 -29 -82 -111 -106 -111c-18 0 -54 27 -54 46s26 48 26 70v470c0 51 -29 84 -30 97l4 6c5 3 11 3 17 3c58 0 115 -29 174 -29h296c12 0 14 26 31 26c2 0 6 -2 8 -3
c20 -18 103 -91 104 -115zM466 561c0 36 -36 31 -62 31h-230c-20 0 -31 -17 -31 -35v-361c127 11 323 241 323 365z" />
    <glyph glyph-name="afii10083" unicode="&#x441;" horiz-adv-x="700" 
d="M663 78c0 -78 -246 -101 -298 -101c-49 0 -100 4 -145 23c-141 58 -219 123 -219 286c0 101 81 175 159 226c2 1 8 5 8 8c0 4 -7 4 -9 4c-23 0 -44 -18 -45 -18c-23 0 -87 114 -87 137c0 6 0 9 6 9c39 0 151 -67 201 -67c72 0 148 39 246 39c45 0 103 5 136 -31
c1 -1 2 -2 3 -2c6 0 16 35 25 35c8 0 10 -7 10 -14c0 -56 -32 -112 -32 -172c0 -8 2 -16 2 -24c0 -9 -2 -24 -14 -24c-13 0 -22 40 -25 50c-25 74 -170 79 -231 79c-14 0 -28 0 -42 -1c-117 -6 -275 -125 -275 -250c0 -140 151 -214 272 -214c93 0 197 37 254 113
c26 35 18 126 40 127c7 -3 7 -11 7 -18c0 -21 -4 -42 -4 -63c0 -92 57 -53 57 -137z" />
    <glyph glyph-name="afii10084" unicode="&#x442;" horiz-adv-x="727" 
d="M704 583c0 -76 -77 -171 -158 -171c-3 0 -6 2 -7 5c39 27 67 84 67 131c0 14 -6 45 -25 45h-131c-25 0 -33 -13 -33 -37v-447c0 -21 17 -28 17 -37c0 -30 -82 -111 -106 -111c-17 0 -54 27 -54 45c0 21 26 48 26 71v482c0 11 1 34 -15 34h-111c-13 0 -37 -72 -45 -85
c-16 -26 -92 -119 -122 -119c-2 0 -4 1 -6 2c-3 3 -3 7 -3 11c0 35 29 83 29 143c0 46 -17 80 -17 90c0 11 8 16 17 16c21 0 57 -27 91 -27h156c-2 4 -3 9 -3 13c0 12 12 14 21 14c36 0 83 -27 107 -27h150c16 23 46 31 72 31c50 0 83 -20 83 -72z" />
    <glyph glyph-name="afii10085" unicode="&#x443;" horiz-adv-x="643" 
d="M632 519l-3 -6c-8 -8 -19 -5 -29 -5c-11 0 -16 -4 -21 -14c-12 -24 -22 -51 -34 -75c-51 -105 -118 -206 -207 -282c-90 -77 -202 -155 -318 -182l-7 -1c-6 0 -13 2 -13 9c0 14 23 22 32 26c93 46 185 124 249 205c-103 63 -195 259 -234 366c-6 18 -41 67 -41 77
c0 7 1 14 9 14c49 0 97 -10 146 -10c23 0 14 -50 14 -65c0 -110 39 -281 131 -353c81 102 162 273 176 401c1 12 2 30 19 30c11 0 19 -10 25 -17c28 -33 52 -63 85 -91c8 -7 19 -15 21 -27z" />
    <glyph glyph-name="afii10086" unicode="&#x444;" horiz-adv-x="694" 
d="M668 182c0 -19 -34 -83 -54 -83c-33 0 -49 51 -89 51h-132v-40c0 -21 17 -28 17 -37c0 -30 -82 -111 -106 -111c-16 0 -54 27 -54 44c0 23 26 49 26 72v72h-107c-41 0 -59 -54 -85 -54c-20 0 -77 72 -77 90c0 17 19 26 19 47v364c0 16 -13 32 -13 43c0 9 10 10 16 10
c34 0 68 -26 114 -26h130c0 12 -2 26 15 26c21 0 58 -26 102 -26h126c-1 10 -10 12 -10 25c0 4 4 5 7 5c22 0 150 -70 150 -90c0 -13 -20 -18 -20 -53v-275c0 -35 25 -39 25 -54zM525 182v410h-99c-22 0 -33 -23 -33 -42v-368h132zM276 182v410h-106c-22 0 -27 -25 -27 -42
v-329c0 -19 13 -39 33 -39h100z" />
    <glyph glyph-name="afii10087" unicode="&#x445;" horiz-adv-x="619" 
d="M605 519l-3 -6c-7 -8 -19 -5 -29 -5c-36 0 -177 -192 -201 -222c13 -19 113 -155 128 -155c18 0 34 41 50 41c8 0 14 -4 14 -12c0 -10 -16 -44 -19 -57c-9 -34 -11 -71 -11 -106v-10c0 -17 -18 -29 -33 -29c-34 0 -186 208 -209 240c-44 -44 -233 -238 -284 -238
c-7 0 -15 4 -15 12c0 17 23 29 34 38c79 62 160 171 213 256c-27 41 -225 332 -225 358c0 23 18 34 39 34c34 0 68 -12 103 -12c21 0 37 13 54 13c6 0 8 -4 8 -9c0 -28 -44 -36 -44 -63c0 -24 115 -188 137 -221c20 33 142 231 143 258c1 12 2 30 19 30c11 0 19 -9 25 -17
c27 -33 52 -63 85 -91c8 -6 20 -16 21 -27z" />
    <glyph glyph-name="afii10088" unicode="&#x446;" horiz-adv-x="672" 
d="M662 -10c0 -76 -77 -171 -158 -171c-3 0 -6 2 -7 5c39 27 67 84 67 131c0 44 -17 45 -55 45c-13 0 -62 -40 -94 -40c-23 0 -28 21 -28 40h-244c-39 0 -88 -39 -104 -39c-11 0 -39 28 -39 39c0 9 26 60 26 112v406c0 55 -26 90 -26 112c0 10 4 20 15 20
c23 0 148 -66 148 -88c0 -13 -20 -18 -20 -53v-442c0 -17 6 -35 26 -35h221v485c0 55 -26 90 -26 112c0 10 4 20 15 20c23 0 148 -66 148 -88c0 -13 -20 -18 -20 -53v-477c16 23 46 31 72 31c50 0 83 -20 83 -72z" />
    <glyph glyph-name="afii10089" unicode="&#x447;" horiz-adv-x="635" 
d="M581 563c0 -13 -20 -18 -20 -53v-403c0 -21 17 -28 17 -37c0 -30 -82 -111 -106 -111c-17 0 -54 27 -54 45c0 21 26 48 26 71v275c-88 -107 -157 -146 -292 -176c-11 -2 -5 -44 -27 -44c-25 0 -124 89 -124 112c0 32 26 23 26 44v233c0 55 -26 90 -26 112
c0 10 4 20 15 20c23 0 148 -66 148 -88c0 -13 -20 -18 -20 -53v-224c133 0 209 14 300 114v119c0 55 -26 90 -26 112c0 10 4 20 15 20c23 0 148 -66 148 -88z" />
    <glyph glyph-name="afii10090" unicode="&#x448;" horiz-adv-x="766" 
d="M739 56c0 -26 -79 -94 -110 -94c-22 0 -28 20 -28 38h-165c-13 0 -62 -40 -94 -40c-23 0 -28 21 -28 40h-171c-39 0 -88 -39 -104 -39c-11 0 -39 28 -39 39c0 9 26 60 26 112v407c0 55 -26 90 -26 112c0 10 4 20 15 20c23 0 148 -66 148 -88c0 -13 -20 -17 -20 -53v-447
c0 -17 13 -31 30 -31h140v487c0 55 -26 90 -26 112c0 10 4 20 15 20c23 0 148 -66 148 -88c0 -13 -20 -17 -20 -53v-445c0 -15 12 -33 28 -33h143v489c0 55 -26 90 -26 112c0 10 4 20 15 20c23 0 148 -66 148 -88c0 -13 -20 -17 -20 -53v-434h3c11 1 18 -13 18 -22z" />
    <glyph glyph-name="afii10091" unicode="&#x449;" horiz-adv-x="880" 
d="M873 -10c0 -76 -77 -171 -158 -171c-3 0 -6 2 -7 5c37 26 63 80 63 124c0 26 -11 52 -41 52h-294c-13 0 -62 -40 -94 -40c-23 0 -28 21 -28 40h-171c-39 0 -88 -39 -104 -39c-11 0 -39 28 -39 39c0 9 26 60 26 112v407c0 55 -26 90 -26 112c0 10 4 20 15 20
c23 0 148 -66 148 -88c0 -13 -20 -17 -20 -53v-447c0 -17 13 -31 30 -31h140v487c0 55 -26 90 -26 112c0 10 4 20 15 20c23 0 148 -66 148 -88c0 -13 -20 -17 -20 -53v-445c0 -15 12 -33 28 -33h143v489c0 55 -26 90 -26 112c0 10 4 20 15 20c23 0 148 -66 148 -88
c0 -13 -20 -17 -20 -53v-481c16 23 46 31 72 31c50 0 83 -20 83 -72z" />
    <glyph glyph-name="afii10092" unicode="&#x44a;" horiz-adv-x="731" 
d="M715 361c0 -16 -33 -22 -36 -44c-20 -169 -217 -308 -379 -318c-12 -18 -71 -38 -94 -38c-12 0 -23 6 -23 20v570c0 15 -3 42 -23 42c-40 0 -47 -72 -47 -100c0 -52 12 -104 35 -150c-89 21 -146 164 -146 247c0 18 3 54 29 54c18 0 37 -19 70 -19c29 0 57 11 82 24
c25 -10 133 -43 133 -74c0 -16 -16 -34 -16 -55v-154h413c1 -2 2 -3 2 -5zM545 292c0 31 -22 42 -50 42h-155c-28 0 -40 -23 -40 -48v-255c87 3 245 176 245 261z" />
    <glyph glyph-name="afii10093" unicode="&#x44b;" horiz-adv-x="784" 
d="M750 562c0 -13 -20 -17 -20 -53v-404c0 -20 17 -29 17 -37c0 -30 -82 -111 -106 -111c-18 0 -54 27 -54 47c0 17 26 47 26 69v449c0 51 -26 85 -26 108c0 10 4 20 15 20c23 0 148 -66 148 -88zM558 362c0 -18 -34 -22 -36 -45c-16 -168 -220 -308 -379 -318
c-12 -18 -71 -38 -94 -38c-12 0 -23 6 -23 20v539c0 55 -26 90 -26 112c0 10 4 20 15 20c23 0 148 -66 148 -88c0 -13 -20 -17 -20 -53v-145h413c1 -1 2 -2 2 -4zM388 291c0 31 -22 42 -50 42h-155c-28 0 -40 -23 -40 -48v-255c87 3 245 176 245 261z" />
    <glyph glyph-name="afii10094" unicode="&#x44c;" horiz-adv-x="584" 
d="M558 362c0 -18 -34 -22 -36 -45c-16 -168 -220 -308 -379 -318c-12 -18 -71 -38 -94 -38c-12 0 -23 6 -23 20v539c0 55 -26 90 -26 112c0 10 4 20 15 20c23 0 148 -66 148 -88c0 -13 -20 -17 -20 -53v-145h413c1 -1 2 -2 2 -4zM388 291c0 31 -22 42 -50 42h-155
c-28 0 -40 -23 -40 -48v-255c87 3 245 176 245 261z" />
    <glyph glyph-name="afii10095" unicode="&#x44d;" horiz-adv-x="681" 
d="M722 338c0 -18 -52 -22 -65 -24c1 -9 2 -19 2 -28c0 -163 -78 -228 -219 -286c-45 -19 -97 -23 -145 -23c-52 0 -298 23 -298 101c0 84 57 44 57 137c0 21 -4 42 -4 63c0 6 -1 18 7 18c22 0 14 -92 40 -127c58 -77 161 -113 255 -113c124 0 272 75 272 217
c0 12 -2 24 -5 36c-89 -12 -182 -23 -272 -23c-20 0 -43 -18 -60 -18c-16 0 -24 85 -24 100c0 13 3 78 19 78c11 0 27 -24 33 -33c40 -59 195 -72 259 -71l32 1c-54 116 -177 178 -301 178c-61 0 -205 -5 -230 -79c-3 -10 -12 -50 -25 -50c-20 0 -12 36 -12 48
c0 60 -32 116 -32 172c0 4 2 9 4 12c2 1 3 2 5 2c11 0 19 -35 26 -35c2 0 2 1 3 2c31 36 92 31 136 31c98 0 174 -39 246 -39c51 0 160 67 202 67c4 0 5 -3 5 -7c0 -23 -64 -139 -85 -139c-6 0 -22 18 -47 18c-3 0 -9 0 -9 -4c7 -15 119 -67 157 -174c14 1 28 4 42 4
c7 0 31 0 31 -12z" />
    <glyph glyph-name="afii10096" unicode="&#x44e;" horiz-adv-x="807" 
d="M768 317c0 -161 -109 -336 -285 -336c-158 0 -283 153 -283 305h-57v-178c0 -21 17 -28 17 -37c0 -29 -82 -111 -106 -111c-18 0 -54 27 -54 46s26 48 26 70v445c0 56 -26 89 -26 112c0 10 4 20 15 20c23 0 148 -66 148 -88c0 -13 -20 -17 -20 -53v-195h57v14
c-1 55 8 75 28 124c70 28 113 98 150 160c33 14 69 22 105 22c65 0 106 -36 160 -36c20 0 40 5 60 5c2 -1 4 -3 4 -6c0 -13 -26 -30 -26 -48c0 -4 3 -9 5 -12c55 -70 82 -132 82 -223zM651 318c0 95 -43 289 -168 289c-123 0 -166 -197 -166 -290c0 -94 38 -304 166 -304
c127 0 168 211 168 305z" />
    <glyph glyph-name="afii10097" unicode="&#x44f;" horiz-adv-x="725" 
d="M691 600c0 -13 -20 -17 -20 -53v-437c0 -21 17 -28 17 -37c0 -29 -82 -111 -106 -111c-18 0 -54 27 -54 46s26 48 26 70v86c-45 5 -88 9 -130 26c-83 -119 -284 -211 -426 -226c108 46 269 171 327 275c-94 49 -184 166 -203 271c-16 19 -55 2 -55 22s101 118 112 118
c17 0 19 -26 31 -26h344c-2 15 -16 26 -16 43c0 8 6 20 15 20c29 0 104 -64 136 -79c2 -2 2 -5 2 -8zM554 196v361c0 19 -11 35 -31 35h-236c-17 0 -55 2 -55 -24c0 -68 75 -191 120 -239c3 9 4 19 4 29c0 15 -5 30 -5 44c0 6 3 9 9 9c4 0 8 -1 12 -2c12 -3 43 -44 55 -55
c20 -19 81 -48 81 -77c0 -16 -40 -8 -54 -38c32 -24 59 -43 100 -43z" />
    <glyph glyph-name="tilde" unicode="&#x2dc;" horiz-adv-x="500" 
d="M416 770c-30 -26 -67 -47 -108 -47c-54 0 -96 64 -165 64c-23 0 -41 -15 -56 -30l-2 33c23 21 45 38 77 38c22 0 44 -8 64 -17c11 -11 54 -33 70 -33c39 0 65 35 83 65z" />
    </font>
</defs>
</svg>
